<?xml version="1.0" encoding="UTF-8" standalone="no"?>
<!DOCTYPE svg PUBLIC "-//W3C//DTD SVG 1.1//EN" "http://www.w3.org/Graphics/SVG/1.1/DTD/svg11.dtd">
<svg width="100%" height="100%" viewBox="0 0 139 119" version="1.1" xmlns="http://www.w3.org/2000/svg" xmlns:xlink="http://www.w3.org/1999/xlink" xml:space="preserve" xmlns:serif="http://www.serif.com/" style="fill-rule:evenodd;clip-rule:evenodd;stroke-linejoin:round;stroke-miterlimit:2;">
    <g>
        <path d="M69.151,14.495C49.589,14.495 33.675,30.41 33.675,49.971C33.675,69.534 49.589,85.448 69.151,85.448C88.712,85.448 104.627,69.534 104.627,49.971C104.627,30.41 88.712,14.495 69.151,14.495ZM69.151,99.448C41.87,99.448 19.675,77.252 19.675,49.971C19.675,22.69 41.87,0.495 69.151,0.495C96.432,0.495 118.627,22.69 118.627,49.971C118.627,77.252 96.432,99.448 69.151,99.448Z" style="fill:rgb(213,211,226);fill-rule:nonzero;"/>
        <path d="M59.228,67.873L64.542,41.222C64.884,39.461 65.057,37.935 65.057,36.646C65.057,35.958 64.858,35.539 64.46,35.389C64.063,35.239 62.714,35.078 60.417,34.906L59.836,34.873L60.223,32.875L72.58,32.875L69.724,47.193C75.933,37.111 81.896,32.07 87.611,32.07C88.169,32.07 88.695,32.166 89.189,32.36L86.482,39.643C85.515,39.213 84.539,38.998 83.55,38.998C79.468,38.998 74.571,43.176 68.859,51.534L65.603,67.873L59.228,67.873Z" style="fill:rgb(148,20,60);fill-rule:nonzero;"/>
        <path d="M0.984,40.347C0.842,39.829 0.793,38.841 1.033,37.635C1.585,34.84 3.768,33.087 7.019,33.731C10.123,34.346 11.809,36.866 11.201,39.941C10.955,41.176 10.537,41.903 10.293,42.206L9.309,41.691C9.64,41.252 9.955,40.595 10.118,39.772C10.578,37.448 9.398,35.609 6.794,35.093C4.368,34.612 2.532,35.701 2.054,38.113C1.9,38.893 1.904,39.719 2.052,40.284L0.984,40.347Z" style="fill:rgb(108,111,115);fill-rule:nonzero;"/>
        <path d="M5.601,45.511L5.541,46.845C5.478,48.239 6.203,49.157 7.357,49.208C8.66,49.267 9.272,48.348 9.349,46.97C9.376,46.341 9.337,45.889 9.287,45.676L5.601,45.511ZM10.259,44.413C10.365,45.079 10.397,46.027 10.357,46.925C10.294,48.319 10,49.206 9.402,49.811C8.929,50.3 8.228,50.554 7.449,50.519C6.115,50.459 5.268,49.58 4.957,48.5L4.912,48.498C4.607,49.265 3.867,49.698 2.807,49.89C1.384,50.157 0.399,50.353 0,50.545L0.06,49.197C0.353,49.044 1.232,48.859 2.503,48.63C3.91,48.393 4.458,47.877 4.556,46.696L4.612,45.467L0.236,45.271L0.294,43.967L10.259,44.413Z" style="fill:rgb(108,111,115);fill-rule:nonzero;"/>
        <path d="M10.212,53.031L10.343,54.329L5.493,54.815L5.498,54.86C5.912,55.09 6.297,55.323 6.651,55.543L10.735,58.239L10.896,59.851L6.263,56.637L0.867,61.142L0.712,59.605L5.32,55.797L4.121,54.952L0.285,55.337L0.155,54.038L10.212,53.031Z" style="fill:rgb(108,111,115);fill-rule:nonzero;"/>
        <path d="M7.459,63.942L7.75,65.091C8.088,66.429 8.986,67.037 9.93,66.798C11.08,66.508 11.309,65.522 10.986,64.242C10.838,63.66 10.71,63.336 10.615,63.144L7.459,63.942ZM2.763,65.13C2.782,65.388 2.859,65.755 2.973,66.206C3.304,67.515 4.089,68.601 5.514,68.241C6.852,67.902 7.115,66.614 6.765,65.232L6.5,64.185L2.763,65.13ZM11.154,61.662C11.41,62.185 11.717,63.035 11.941,63.922C12.261,65.188 12.25,66.057 11.91,66.793C11.66,67.398 11.156,67.85 10.384,68.045C9.439,68.284 8.453,67.868 7.814,66.931L7.785,66.939C7.787,67.928 7.292,69.214 5.837,69.581C4.995,69.795 4.27,69.622 3.666,69.249C2.867,68.724 2.296,67.692 1.892,66.093C1.671,65.22 1.56,64.536 1.512,64.1L11.154,61.662Z" style="fill:rgb(108,111,115);fill-rule:nonzero;"/>
        <path d="M9.163,72.726C7.185,73.594 5.884,75.443 6.709,77.324C7.541,79.219 9.755,79.525 11.857,78.603C13.697,77.795 15.197,75.99 14.324,73.998C13.456,72.021 11.195,71.833 9.163,72.726ZM12.466,79.842C9.28,81.241 6.741,80.045 5.705,77.683C4.631,75.239 5.773,72.69 8.575,71.46C11.513,70.171 14.238,71.154 15.323,73.625C16.431,76.153 15.212,78.636 12.466,79.842Z" style="fill:rgb(108,111,115);fill-rule:nonzero;"/>
        <path d="M17.308,95.071C16.785,94.737 15.804,94.035 14.968,92.956C14.032,91.746 13.568,90.512 13.709,89.151C13.839,87.949 14.576,86.695 15.822,85.731C18.213,83.896 21.224,84.182 23.3,86.862C24.017,87.786 24.376,88.665 24.476,89.138L23.441,89.541C23.3,88.967 23.041,88.315 22.416,87.508C20.91,85.564 18.717,85.232 16.714,86.785C14.687,88.356 14.435,90.504 15.877,92.366C16.401,93.041 16.854,93.43 17.156,93.576L19.539,91.729L18.281,90.105L19.111,89.462L21.15,92.094L17.308,95.071Z" style="fill:rgb(108,111,115);fill-rule:nonzero;"/>
        <path d="M26.816,98.456L23.964,95.75L21.455,98.394L24.631,101.41L23.877,102.204L19.753,98.289L26.716,90.956L30.677,94.717L29.923,95.511L26.91,92.65L24.709,94.967L27.559,97.673L26.816,98.456Z" style="fill:rgb(108,111,115);fill-rule:nonzero;"/>
        <path d="M30.916,100.93L32.002,101.705C33.138,102.516 34.302,102.407 34.973,101.467C35.731,100.406 35.293,99.393 34.179,98.579C33.666,98.213 33.265,98 33.06,97.927L30.916,100.93ZM32.529,96.425C33.144,96.699 33.957,97.186 34.689,97.709C35.825,98.519 36.41,99.249 36.59,100.079C36.744,100.741 36.576,101.469 36.123,102.103C35.347,103.189 34.15,103.422 33.074,103.097L33.047,103.133C33.525,103.806 33.486,104.662 33.071,105.655C32.521,106.995 32.15,107.928 32.093,108.367L30.996,107.583C31.027,107.255 31.349,106.416 31.849,105.225C32.415,103.916 32.281,103.175 31.341,102.45L30.341,101.735L27.796,105.3L26.735,104.542L32.529,96.425Z" style="fill:rgb(108,111,115);fill-rule:nonzero;"/>
        <path d="M41.909,108.308L38.422,106.497L36.743,109.73L40.628,111.749L40.124,112.721L35.081,110.1L39.74,101.133L44.583,103.648L44.078,104.62L40.392,102.705L38.919,105.539L42.406,107.35L41.909,108.308Z" style="fill:rgb(108,111,115);fill-rule:nonzero;"/>
        <path d="M51.033,116.278C50.412,116.29 49.206,116.249 47.912,115.812C46.46,115.324 45.391,114.552 44.754,113.34C44.198,112.266 44.117,110.812 44.621,109.319C45.597,106.466 48.264,105.037 51.478,106.119C52.587,106.493 53.374,107.027 53.718,107.365L53.08,108.274C52.644,107.874 52.067,107.474 51.1,107.148C48.767,106.362 46.757,107.3 45.948,109.703C45.128,112.136 46.109,114.065 48.341,114.817C49.152,115.091 49.746,115.164 50.078,115.117L51.041,112.259L49.093,111.602L49.428,110.606L52.585,111.671L51.033,116.278Z" style="fill:rgb(108,111,115);fill-rule:nonzero;"/>
        <path d="M57.968,107.863L55.953,117.766L54.673,117.507L56.689,107.602L57.968,107.863Z" style="fill:rgb(108,111,115);fill-rule:nonzero;"/>
        <path d="M59.9,116.86C60.448,117.274 61.271,117.655 62.168,117.741C63.497,117.868 64.341,117.241 64.438,116.225C64.529,115.284 64.043,114.694 62.733,114.041C61.146,113.301 60.212,112.351 60.348,110.933C60.499,109.364 61.91,108.324 63.867,108.512C64.898,108.61 65.623,108.922 66.045,109.219L65.585,110.245C65.274,110.034 64.63,109.671 63.719,109.583C62.345,109.451 61.744,110.223 61.677,110.91C61.586,111.85 62.155,112.373 63.492,113.044C65.132,113.864 65.919,114.769 65.778,116.248C65.628,117.802 64.349,119.036 61.974,118.808C61.003,118.715 59.97,118.329 59.466,117.919L59.9,116.86Z" style="fill:rgb(108,111,115);fill-rule:nonzero;"/>
        <path d="M70.814,110.01L67.742,110.125L67.701,109.016L75.177,108.734L75.219,109.844L72.132,109.96L72.471,118.95L71.152,119L70.814,110.01Z" style="fill:rgb(108,111,115);fill-rule:nonzero;"/>
        <path d="M78.964,112.927L80.278,112.69C81.65,112.443 82.385,111.534 82.181,110.397C81.951,109.114 80.919,108.721 79.56,108.95C78.94,109.061 78.507,109.2 78.312,109.297L78.964,112.927ZM76.867,108.628C77.492,108.378 78.408,108.137 79.293,107.977C80.666,107.73 81.595,107.822 82.316,108.271C82.898,108.624 83.3,109.252 83.438,110.019C83.674,111.333 83.004,112.351 82.021,112.894L82.029,112.938C82.844,113.066 83.429,113.692 83.851,114.683C84.425,116.011 84.834,116.928 85.109,117.274L83.781,117.514C83.569,117.262 83.193,116.446 82.69,115.257C82.148,113.937 81.523,113.517 80.35,113.683L79.14,113.9L79.916,118.209L78.632,118.439L76.867,108.628Z" style="fill:rgb(108,111,115);fill-rule:nonzero;"/>
        <path d="M91.954,110.188L88.224,111.424L89.37,114.884L93.527,113.507L93.871,114.546L88.475,116.333L85.297,106.737L90.479,105.021L90.824,106.06L86.88,107.367L87.884,110.399L91.614,109.164L91.954,110.188Z" style="fill:rgb(108,111,115);fill-rule:nonzero;"/>
        <path d="M99.838,106.566L96.308,108.297L97.914,111.571L101.849,109.641L102.331,110.626L97.224,113.13L92.771,104.049L97.675,101.643L98.157,102.627L94.425,104.457L95.833,107.327L99.363,105.596L99.838,106.566Z" style="fill:rgb(108,111,115);fill-rule:nonzero;"/>
        <path d="M103.579,103.581L104.683,102.832C105.837,102.049 106.139,100.919 105.49,99.964C104.758,98.885 103.656,98.944 102.507,99.706C101.985,100.06 101.646,100.363 101.507,100.529L103.579,103.581ZM99.914,100.506C100.384,100.024 101.123,99.431 101.867,98.926C103.021,98.143 103.909,97.848 104.75,97.965C105.425,98.051 106.048,98.462 106.485,99.107C107.235,100.211 107.037,101.414 106.358,102.31L106.384,102.348C107.181,102.133 107.97,102.467 108.758,103.201C109.822,104.182 110.568,104.853 110.961,105.058L109.845,105.815C109.548,105.673 108.873,105.079 107.931,104.197C106.898,103.212 106.157,103.081 105.152,103.71L104.135,104.4L106.595,108.022L105.515,108.756L99.914,100.506Z" style="fill:rgb(108,111,115);fill-rule:nonzero;"/>
        <path d="M114.005,101.169C114.286,100.986 114.646,100.667 115.017,100.318C117.046,98.402 117.077,96.227 115.202,94.242C113.575,92.496 111.554,92.322 109.546,94.216C109.055,94.68 108.726,95.074 108.525,95.366L114.005,101.169ZM106.917,95.563C107.413,94.93 108.039,94.215 108.792,93.505C110.155,92.217 111.425,91.618 112.635,91.61C113.856,91.591 115.041,92.082 116.164,93.271C117.297,94.471 117.854,95.803 117.805,97.128C117.766,98.465 116.981,99.907 115.553,101.256C114.876,101.894 114.277,102.397 113.746,102.796L106.917,95.563Z" style="fill:rgb(108,111,115);fill-rule:nonzero;"/>
        <path d="M125.078,88.776C125.307,88.53 125.578,88.134 125.854,87.704C127.361,85.354 126.865,83.236 124.566,81.761C122.565,80.46 120.56,80.779 119.069,83.103C118.704,83.672 118.479,84.134 118.356,84.465L125.078,88.776ZM116.843,85.045C117.171,84.311 117.605,83.466 118.165,82.595C119.178,81.016 120.266,80.126 121.438,79.827C122.619,79.514 123.889,79.703 125.266,80.587C126.655,81.478 127.517,82.637 127.79,83.935C128.075,85.242 127.662,86.831 126.601,88.486C126.099,89.27 125.639,89.902 125.22,90.417L116.843,85.045Z" style="fill:rgb(108,111,115);fill-rule:nonzero;"/>
        <path d="M127.191,77.308C129.188,78.129 131.423,77.784 132.205,75.883C132.992,73.969 131.677,72.162 129.554,71.289C127.695,70.525 125.354,70.697 124.526,72.708C123.705,74.705 125.139,76.463 127.191,77.308ZM130.022,69.991C133.241,71.315 134.143,73.972 133.161,76.358C132.146,78.827 129.519,79.774 126.688,78.609C123.721,77.388 122.537,74.744 123.564,72.247C124.615,69.696 127.25,68.85 130.022,69.991Z" style="fill:rgb(108,111,115);fill-rule:nonzero;"/>
        <path d="M137.065,61.239C137.195,61.759 137.221,62.747 136.953,63.948C136.332,66.728 134.109,68.429 130.876,67.707C127.788,67.018 126.162,64.458 126.845,61.401C127.119,60.171 127.556,59.454 127.807,59.157L128.776,59.696C128.435,60.126 128.104,60.776 127.923,61.595C127.407,63.907 128.542,65.773 131.132,66.351C133.547,66.89 135.408,65.846 135.943,63.446C136.116,62.67 136.132,61.844 135.997,61.277L137.065,61.239Z" style="fill:rgb(108,111,115);fill-rule:nonzero;"/>
        <path d="M133.485,52.097L133.198,56.015L136.832,56.282L137.152,51.915L138.244,51.995L137.828,57.662L127.749,56.922L128.147,51.479L129.24,51.559L128.937,55.702L132.121,55.936L132.409,52.018L133.485,52.097Z" style="fill:rgb(108,111,115);fill-rule:nonzero;"/>
        <path d="M138.287,48.277L128.207,49.069L128.097,47.648L132.941,44.018C134.064,43.177 135.08,42.51 136.074,41.951L136.057,41.922C134.721,42.148 133.497,42.274 131.927,42.397L127.71,42.729L127.613,41.502L137.692,40.71L137.796,42.027L132.933,45.628C131.866,46.419 130.768,47.183 129.716,47.777L129.733,47.821C131,47.646 132.209,47.521 133.884,47.389L138.19,47.051L138.287,48.277Z" style="fill:rgb(108,111,115);fill-rule:nonzero;"/>
        <path d="M127.723,36.618L128.436,39.609L127.356,39.867L125.62,32.587L126.699,32.33L127.416,35.335L136.169,33.247L136.475,34.532L127.723,36.618Z" style="fill:rgb(108,111,115);fill-rule:nonzero;"/>
    </g>
</svg>
