<svg width="220" height="42" viewBox="0 0 220 42" fill="none" xmlns="http://www.w3.org/2000/svg">
<path d="M10.6597 23.9141L14.3144 15.0818C15.7611 11.5794 16.2179 8.99058 16.2179 7.62005C16.2179 7.08707 16.2941 4.80285 13.4769 4.80285C10.2028 4.80285 0.837547 7.01093 0.837547 10.4373C0.837547 11.8078 3.35019 13.1022 5.71054 13.6352C5.93896 13.7113 5.78668 14.092 5.6344 14.092C2.96948 13.7874 0 12.6453 0 10.2088C0 7.01093 5.6344 3.50846 12.0302 3.35618C15.9895 3.28004 17.4362 5.71654 17.4362 8.30532C17.4362 10.7418 16.4464 15.4625 13.6292 22.0868L9.82213 31.2236C6.54809 38.99 6.09125 40.3605 7.23335 40.3605C11.0404 40.3605 18.0453 30.3861 23.832 21.0969C25.6594 18.2036 29.238 12.6453 30.7608 12.6453C32.7404 12.6453 30.9892 19.6503 29.0857 24.1426L25.6594 32.2896C22.766 39.2184 22.4615 40.3605 23.3752 40.3605C25.2025 40.3605 28.7811 37.3149 32.8927 33.051C31.5222 32.8987 30.3039 32.6703 29.1618 32.4419C29.0857 32.3657 29.0857 32.2896 29.0857 32.1373C29.1618 31.985 29.238 31.8328 29.3903 31.8328C30.6085 32.1373 32.0552 32.2896 33.5019 32.3657C42.7149 22.4675 54.5166 6.4018 57.2577 0.843542C57.41 0.53898 58.0953 0.615121 57.943 0.919683C55.5065 7.84847 45.6843 22.772 36.3952 32.3657C40.4306 32.2896 44.7707 31.452 47.8924 29.777L48.3493 30.4622C44.9991 32.2896 40.2022 33.1271 35.8622 33.1271C31.1415 37.924 26.6492 41.2742 23.4513 41.2742C21.3194 41.2742 20.7102 38.7615 26.1162 25.8176C30.8369 14.5488 31.2176 13.559 30.6085 13.559C30.0755 13.559 29.1618 16.2239 24.7457 23.6857C20.4818 30.6906 12.1825 41.3503 7.23335 41.3503C5.02528 41.2742 4.64457 38.457 10.6597 23.9141Z" fill="#E0D8CD"/>
<path d="M45.3799 34.4218C45.3799 32.0614 47.9687 28.7874 50.7097 28.7874C51.5473 28.7874 52.3848 29.1681 52.8417 29.6249C52.8417 29.6249 53.0701 29.5488 53.2224 29.5488C54.2122 29.5488 54.2122 30.3102 53.9076 30.9193L52.7655 33.5081C52.2325 34.8025 52.7655 35.1832 53.2985 35.1832C55.1259 35.1832 60.3034 32.366 62.9684 30.9193L65.1764 29.701C65.3287 29.6249 65.481 29.701 65.5571 29.8533C65.6333 30.0056 65.6333 30.234 65.481 30.3102L63.2729 31.5284C58.8568 33.8888 54.8213 36.0207 52.7655 36.0207C50.5574 36.0207 50.0245 34.6502 50.5574 33.4319C49.4153 34.8025 48.1209 36.0207 47.055 36.0207C45.9129 36.0969 45.3799 35.4877 45.3799 34.4218ZM52.0803 30.1579C52.0803 30.1579 51.6996 29.5488 50.9381 29.5488C49.5676 29.5488 47.588 32.8228 47.588 34.1933C47.588 34.7263 47.8925 34.7263 48.1209 34.7263C48.8823 34.7263 51.1666 32.1375 52.0803 30.1579Z" fill="#E0D8CD"/>
<path d="M64.491 33.9643L65.8616 30.6903C65.9377 30.4619 65.7093 30.3096 65.4808 30.4619C65.3286 30.538 65.1001 30.538 64.9479 30.3096C64.8717 30.1573 64.8717 29.9289 65.1001 29.7766L66.623 28.939C67.0037 28.7868 67.2321 28.7106 67.5366 28.7106C68.0696 28.7106 68.5265 29.0152 68.1458 29.9289L66.5468 33.7359C66.2423 34.5734 66.0138 35.1064 67.2321 35.1064C69.4402 35.1064 76.2928 31.2994 79.2623 29.7004C79.4146 29.6243 79.5669 29.7005 79.643 29.8527C79.7191 30.005 79.7191 30.2334 79.5669 30.3096C74.3893 33.1268 69.1356 35.944 66.0138 35.944C64.7956 36.0963 63.958 35.2587 64.491 33.9643ZM68.1458 23.5331C68.1458 22.6955 68.831 22.0103 69.6686 22.0103C70.5061 22.0103 71.1914 22.6955 71.1914 23.5331C71.1914 24.3706 70.5061 25.0559 69.6686 25.0559C68.831 25.0559 68.1458 24.3706 68.1458 23.5331Z" fill="#E0D8CD"/>
<path d="M78.3485 31.9087L79.6429 28.7869C82.917 20.8683 86.191 18.8887 87.3331 18.8887C88.0945 18.8887 88.1707 19.4217 88.1707 19.8024C88.1707 21.7059 85.3535 26.5027 81.4703 29.3199L80.0236 32.8224C79.2622 34.6498 79.8713 35.4112 80.785 35.4112C83.3738 35.4112 86.8001 33.6599 90.0742 31.2996C90.2265 31.2234 90.3787 31.3757 90.3787 31.4519C90.4549 31.6041 90.3787 31.7564 90.2265 31.8326C86.8763 34.2691 83.3738 36.0964 80.7089 36.0964C77.6633 36.0964 77.3587 34.4213 78.3485 31.9087ZM87.4093 19.8785C87.4093 19.8024 87.4093 19.5739 87.1047 19.5739C86.4956 19.5739 85.125 20.6399 82.0033 28.0255C84.9728 25.4368 87.4093 21.249 87.4093 19.8785Z" fill="#E0D8CD"/>
<path d="M104.389 31.9853C104.389 29.2442 107.206 28.6351 110.023 28.6351C114.744 28.6351 119.769 29.7011 125.48 30.5386C137.053 12.0365 146.723 3.35645 149.997 3.35645C152.129 3.35645 152.662 6.17365 146.494 20.7165L142.078 31.0716C146.342 30.9193 150.911 30.4625 153.347 29.7011C153.728 29.5488 153.88 30.3102 153.119 30.5386C150.149 31.3762 145.885 31.833 141.698 32.0614L138.195 40.5892C137.967 41.1983 135.759 41.1983 136.139 40.3608L139.566 32.2137C137.662 32.2899 135.911 32.2899 134.388 32.2899C131.723 32.2899 129.21 32.2137 127.002 32.0614C125.708 34.0411 124.566 35.7923 123.728 37.239C122.129 39.9039 119.769 41.2744 116.495 41.2744C108.043 41.2744 104.389 36.3253 104.389 31.9853ZM121.596 37.0106L124.718 31.833C116.952 31.2239 111.698 29.9295 107.815 29.9295C106.749 29.9295 105.226 30.3102 105.226 31.833C105.226 34.1934 110.937 40.3608 116.571 40.3608C118.551 40.4369 120.607 38.7618 121.596 37.0106ZM140.022 31.1478L146.266 16.2242C150.682 5.86908 151.367 4.19399 150.073 4.19399C146.875 4.19399 135.149 19.8028 127.84 30.7671C130.2 31.0716 132.713 31.1478 135.378 31.1478C136.596 31.2239 138.271 31.2239 140.022 31.1478Z" fill="#E0D8CD"/>
<path d="M152.281 31.9087L153.576 28.7869C156.85 20.8683 160.124 18.8887 161.266 18.8887C162.027 18.8887 162.103 19.4217 162.103 19.8024C162.103 21.7059 159.286 26.5027 155.403 29.3199L153.956 32.8224C153.195 34.6498 153.804 35.4112 154.718 35.4112C156.698 35.4112 159.819 34.4213 167.738 31.528C167.89 31.4519 168.042 31.6041 168.119 31.7564C168.195 31.9087 168.195 32.061 168.042 32.1371C159.972 35.1828 156.774 36.0964 154.718 36.0964C151.52 36.0964 151.215 34.4213 152.281 31.9087ZM161.266 19.8785C161.266 19.8024 161.266 19.5739 160.961 19.5739C160.352 19.5739 158.982 20.6399 155.86 28.0255C158.829 25.4368 161.266 21.249 161.266 19.8785Z" fill="#E0D8CD"/>
<path d="M165.377 34.4218C165.377 32.0614 167.966 28.7874 170.707 28.7874C171.545 28.7874 172.382 29.1681 172.839 29.6249C172.839 29.6249 173.068 29.5488 173.22 29.5488C174.21 29.5488 174.21 30.3102 173.905 30.9193L172.839 33.5081C172.306 34.8025 172.839 35.1832 173.372 35.1832C175.2 35.1832 180.377 32.366 183.042 30.9193L185.25 29.701C185.402 29.6249 185.555 29.701 185.631 29.8533C185.707 30.0056 185.707 30.234 185.555 30.3102L183.347 31.5284C178.93 33.8888 174.895 36.0207 172.839 36.0207C170.631 36.0207 170.098 34.6502 170.631 33.4319C169.489 34.8025 168.195 36.0207 167.129 36.0207C165.987 36.0969 165.377 35.4877 165.377 34.4218ZM172.078 30.1579C172.078 30.1579 171.697 29.5488 170.936 29.5488C169.565 29.5488 167.586 32.8228 167.586 34.1933C167.586 34.7263 167.89 34.7263 168.119 34.7263C168.956 34.7263 171.24 32.1375 172.078 30.1579Z" fill="#E0D8CD"/>
<path d="M183.88 35.4113L185.859 30.6906C185.935 30.4622 185.707 30.3099 185.478 30.4622C185.326 30.5383 185.098 30.5383 184.945 30.3099C184.869 30.1576 184.869 29.9292 185.098 29.7769L186.621 28.9394C187.001 28.7871 187.23 28.7109 187.534 28.7109C188.067 28.7109 188.524 29.0155 188.143 29.9292L187.458 31.6043C188.372 30.4622 190.047 28.7871 191.57 28.7871C192.864 28.7871 192.56 30.0053 192.255 30.8429L191.95 31.6043C192.864 30.4622 194.539 28.7871 196.062 28.7871C197.356 28.7871 197.052 30.0053 196.747 30.8429L195.529 33.8124C195.224 34.5738 195.072 35.1829 196.214 35.1829C198.422 35.1829 205.656 31.2236 208.321 29.7769C208.473 29.7008 208.625 29.7769 208.701 29.9292C208.777 30.0815 208.777 30.3099 208.625 30.386C203.448 33.2032 198.118 36.0204 194.996 36.0204C193.702 36.0204 192.788 35.1829 193.321 33.8885L194.615 30.7667C194.768 30.3099 194.311 30.3099 193.854 30.6906C192.636 31.5281 191.57 32.9748 190.351 35.1829C189.971 35.792 189.438 36.0204 188.753 36.0204C188.372 36.0204 187.991 35.8682 188.22 35.3352L190.123 30.7667C190.275 30.386 189.895 30.2337 189.362 30.6906C188.143 31.5281 187.077 32.9748 185.859 35.1829C185.478 35.792 184.945 36.0204 184.26 36.0204C184.032 36.0966 183.651 35.9443 183.88 35.4113Z" fill="#E0D8CD"/>
<path d="M207.635 33.9643L209.006 30.6903C209.082 30.4619 208.854 30.3096 208.625 30.4619C208.473 30.538 208.245 30.538 208.092 30.3096C208.016 30.1573 208.016 29.9289 208.245 29.7766L209.767 28.939C210.148 28.7868 210.377 28.7106 210.681 28.7106C211.214 28.7106 211.671 29.0152 211.29 29.9289L209.691 33.7359C209.311 34.5734 209.311 35.1064 210.3 35.1064C212.28 35.1064 217.305 32.5938 219.666 31.1471C219.818 31.071 219.97 31.2233 219.97 31.2994C220.046 31.4517 219.97 31.604 219.818 31.6801C219.818 31.6801 212.965 35.944 209.158 35.944C207.94 36.0963 207.179 35.1826 207.635 33.9643ZM211.29 23.5331C211.29 22.6955 211.975 22.0103 212.813 22.0103C213.651 22.0103 214.336 22.6955 214.336 23.5331C214.336 24.3706 213.651 25.0559 212.813 25.0559C211.975 25.0559 211.29 24.3706 211.29 23.5331Z" fill="#E0D8CD"/>
</svg>
