<svg width="138" height="45" viewBox="0 0 138 45" fill="none" xmlns="http://www.w3.org/2000/svg">
<g clip-path="url(#clip0_1121_1674)">
<path d="M32.6994 15.0001C32.6994 19.7001 40.7994 20.0001 40.7994 23.6001C40.7994 24.9001 39.5994 25.5001 38.5994 25.5001C33.7994 25.5001 31.0994 18.8001 30.2994 11.3001C29.9994 8.50009 28.8994 7.10009 26.0994 5.90009C19.3994 3.10009 9.49941 1.5001 3.39941 0.600098C4.09941 3.3001 13.1994 4.90009 16.9994 5.30009C16.6994 5.80009 16.1994 6.7001 15.8994 7.2001C12.0994 6.2001 5.59941 5.3001 0.899414 4.7001C2.39941 7.7001 9.39941 8.2001 14.9994 9.2001L14.3994 10.8001C9.99941 10.1001 5.49941 9.60009 1.29941 9.60009C2.89941 12.0001 9.29941 12.5001 13.8994 12.6001L13.4994 14.2001C10.7994 14.1001 7.79941 14.1001 4.89941 14.2001C5.89941 15.9001 8.59941 16.2001 11.0994 16.4001C13.7994 16.7001 18.0994 17.1001 19.5994 19.6001C23.4994 25.5001 26.3994 30.0001 32.3994 30.0001C34.1994 30.0001 35.6994 29.7001 36.4994 29.4001C35.9994 31.4001 31.3994 30.4001 28.8994 34.3001C27.3994 36.6001 27.3994 39.2001 24.3994 39.9001C22.4994 40.4001 21.2994 41.2001 21.2994 42.7001C24.3994 42.6001 26.6994 42.2001 29.8994 41.2001C41.3994 37.7001 45.9994 31.2001 45.9994 25.9001C45.9994 23.0001 44.3994 20.1001 39.8994 18.1001L39.9994 17.9001C41.5994 18.2001 46.4994 21.0001 48.0994 21.7001C50.0994 22.6001 51.7994 23.1001 53.5994 23.1001C48.6994 19.8001 44.2994 17.6001 40.1994 16.3001C38.7994 15.8001 37.9994 15.5001 37.9994 15.0001C37.9994 14.5001 38.7994 14.5001 38.7994 14.1001C38.7994 13.8001 38.2994 13.7001 38.2994 13.1001C38.2994 12.7001 38.5994 12.3001 39.0994 12.3001C39.5994 12.3001 39.8994 12.6001 39.9994 13.1001C40.0994 13.4001 40.1994 13.8001 40.6994 14.0001C44.7994 16.0001 50.4994 20.0001 54.0994 22.9001V23.6001C54.4994 23.6001 54.7994 23.2001 54.7994 22.9001C54.7994 22.7001 54.6994 22.4001 54.4994 22.3001C51.9994 20.0001 44.6994 13.5001 39.1994 11.2001C37.9994 10.7001 36.6994 10.5001 35.7994 10.5001V10.9001H34.3994L34.6994 11.4001L33.3994 11.6001L33.8994 12.3001L32.8994 12.7001L33.3994 13.5001L32.6994 14.0001L33.0994 14.7001L32.6994 15.0001Z" fill="black"/>
<path d="M88.5998 28C87.3998 28 86.4998 28.2 85.5998 28.9L84.7998 30.3V28.3H82.2998V40.2H84.7998V34.9C84.7998 31.2 86.1998 29.8 87.8998 29.8C89.5998 29.8 90.2998 30.7 90.3998 32.1C90.3998 32.7 90.3998 33.2 90.3998 33.8V40.2H92.8998V33.5C92.8998 32.5 92.8998 32 92.7998 31.4C92.5998 29.3 91.1998 28 88.5998 28Z" fill="black"/>
<path d="M104.1 29.9L103.3 28.7C102.7 28.2 101.5 28 100.5 28C97.3998 28 94.7998 30.1 94.7998 34.4C94.7998 37.9 96.6998 40.5 100.1 40.5C101.3 40.5 102.5 40.1 103.2 39.6L104.1 38.3V44.6H106.6V28.3H104.1V29.9ZM104.1 34.4C104.1 37.6 102.5 38.7 100.7 38.7C98.5998 38.7 97.3998 36.8 97.3998 34.2C97.3998 31.3 98.8998 29.8 100.8 29.8C102.4 29.8 104.1 30.9 104.1 33.8V34.4Z" fill="black"/>
<path d="M117 33.8999C117 37.2999 115.7 38.6999 114 38.6999C112.5 38.6999 111.6 37.8998 111.5 36.5998C111.4 35.9998 111.4 35.2998 111.4 34.9998V28.3999H109V35.4998C109 36.4998 109 36.9998 109.1 37.5998C109.4 39.1998 110.8 40.5998 113.3 40.5998C114.5 40.5998 115.4 40.3998 116.3 39.6998L117.1 38.1999V40.1998H119.5V28.2998H117V33.8999Z" fill="black"/>
<path d="M124.5 24.3999H122V26.5999H124.5V24.3999Z" fill="black"/>
<path d="M124.5 28.2998H122V40.1998H124.5V28.2998Z" fill="black"/>
<path d="M137.6 31.4C137.4 29.3 135.9 28 133.4 28C132.2 28 131.3 28.2 130.4 28.9L129.6 30.3V28.3H127.1V40.2H129.6V34.9C129.6 31.2 131 29.8 132.7 29.8C134.4 29.8 135.1 30.7 135.2 32.1C135.2 32.7 135.2 33.2 135.2 33.8V40.2H137.7V33.5C137.6 32.5 137.6 32 137.6 31.4Z" fill="black"/>
<path d="M63.3998 31.0999C60.9998 30.4999 60.0998 29.7999 60.0998 28.3999C60.0998 26.8999 61.1998 26.2999 62.6998 26.2999C64.1998 26.2999 65.1998 27.0999 65.4998 28.4999C66.4998 28.5999 68.1998 29.0999 68.1998 29.0999C67.8998 26.3999 66.1998 24.3999 62.7998 24.3999C59.8998 24.3999 57.4998 26.0999 57.4998 28.7999C57.4998 31.4999 59.3998 32.5999 62.3998 33.2999C64.8998 33.8999 65.7998 34.6999 65.7998 36.2999C65.7998 37.6999 64.4998 38.5999 62.8998 38.5999C61.0998 38.5999 59.6998 37.5999 59.2998 35.6999H56.7998C57.0998 38.7999 59.3998 40.4999 62.8998 40.4999C65.8998 40.4999 68.3998 38.7999 68.3998 35.9999C68.3998 33.3999 66.7998 31.8999 63.3998 31.0999Z" fill="black"/>
<path d="M79.9 37.0999V32.8999C79.9 32.2999 79.9 31.6999 79.8 31.1999C79.6 29.1999 78.4 27.8999 75.3 27.8999C73.2 27.8999 71.6 28.7999 70.9 30.2999C71.6 30.7999 72.1 31.1999 72.6 31.5999C72.9 30.9999 73.2 30.4999 73.9 30.0999L74 29.9999C74.3 29.7999 74.8 29.6999 75.3 29.6999C76.7 29.6999 77.3 30.3999 77.4 31.2999C77.4 31.6999 77.4 32.8999 77.4 32.8999H76.6C72.1 32.8999 70 34.2999 70 36.9999C70 38.6999 71 39.7999 72.4 40.1999C72.8 40.2999 73.3 40.3999 73.8 40.3999C74.9 40.3999 75.9 40.1999 76.7 39.5999L77.3 38.2999L77.5 39.9999H79.9V39.8999C80 38.7999 79.9 37.9999 79.9 37.0999ZM77.5 34.5999V35.6999C77.5 37.0999 76.9 38.0999 75.9 38.4999C75.6 38.5999 75.2 38.6999 74.8 38.6999C73.5 38.6999 72.7 38.0999 72.7 36.8999C72.7 36.7999 72.7 36.6999 72.7 36.5999C72.8 35.8999 73.3 35.3999 74 34.9999C74.8 34.5999 76 34.4999 77.5 34.5999Z" fill="black"/>
</g>
<defs>
<clipPath id="clip0_1121_1674">
<rect width="138" height="45" fill="white"/>
</clipPath>
</defs>
</svg>
