<?xml version="1.0" encoding="utf-8"?>
<!-- Generator: Adobe Illustrator 18.0.0, SVG Export Plug-In . SVG Version: 6.00 Build 0)  -->
<!DOCTYPE svg PUBLIC "-//W3C//DTD SVG 1.1//EN" "http://www.w3.org/Graphics/SVG/1.1/DTD/svg11.dtd" [
	<!ENTITY ns_flows "http://ns.adobe.com/Flows/1.0/">
	<!ENTITY ns_extend "http://ns.adobe.com/Extensibility/1.0/">
	<!ENTITY ns_ai "http://ns.adobe.com/AdobeIllustrator/10.0/">
	<!ENTITY ns_graphs "http://ns.adobe.com/Graphs/1.0/">
	<!ENTITY ns_vars "http://ns.adobe.com/Variables/1.0/">
	<!ENTITY ns_imrep "http://ns.adobe.com/ImageReplacement/1.0/">
	<!ENTITY ns_sfw "http://ns.adobe.com/SaveForWeb/1.0/">
	<!ENTITY ns_custom "http://ns.adobe.com/GenericCustomNamespace/1.0/">
	<!ENTITY ns_adobe_xpath "http://ns.adobe.com/XPath/1.0/">
]>
<svg version="1.1" id="logo" xmlns:x="&ns_extend;" xmlns:i="&ns_ai;" xmlns:graph="&ns_graphs;"
	 xmlns="http://www.w3.org/2000/svg" xmlns:xlink="http://www.w3.org/1999/xlink" xmlns:a="http://ns.adobe.com/AdobeSVGViewerExtensions/3.0/"
	 x="0px" y="0px" width="186.49px" height="77px" viewBox="0 0 186.49 77" style="enable-background:new 0 0 186.49 77;"
	 xml:space="preserve">
<style type="text/css">
	.st0{fill:#154273;}
	.st1{fill:#FFFFFF;}
	.st2{fill:#1D1D1B;}
</style>
<metadata>
	<sfw  xmlns="&ns_sfw;">
		<slices></slices>
		<sliceSourceBounds  width="181.93" height="77" x="190.6" y="-158.12" bottomLeftOrigin="true"></sliceSourceBounds>
	</sfw>
</metadata>
<rect x="0" y="0" class="st0" width="44" height="77"/>
<path class="st1" d="M22.76,57.01H22v-2.12h0.76V57.01z M26.21,47.66h-0.76v-2.12h0.76V47.66z M12.05,44c-0.06,0-0.45,0-0.45,0.08
	c0,0.08,0.18,0.04,0.45,0.09c0.61,0.1,0.85,0.41,1.28,0.41c0.39,0,0.79-0.26,0.63-0.83c-0.03-0.09-0.08-0.07-0.09-0.01
	c-0.06,0.25-0.37,0.4-0.7,0.4C12.77,44.14,12.68,44,12.05,44z M7.84,46.12c0.07,0.09,0.79,1.03-0.32,1.39
	c-0.05,0.02-0.07,0.06,0.01,0.1c0.82,0.34,1.22-0.29,1.22-0.29c0.41,0.94-0.22,1.46-0.22,1.46c0.09,0.17,0.48,0.45,1.07,0.59
	c0.22-0.12,0.54-0.35,0.67-0.71c0,0,0.16,0.41,0.01,0.8c1.67,0.15,2.26-1.18,3.55-0.94c0.04,0.01,0.05-0.02,0.05-0.06
	c0-0.82-0.5-2.33-2.1-2.64c-1.59-0.31-1.16-0.96-1.16-0.96c0.67-0.03,1.06,0.26,1.06,0.26c0.12-0.2-0.05-0.42-0.05-0.42
	c0.06-0.08,0.1-0.35,0.1-0.35c-0.75,0-0.95-0.16-0.95-0.16c-0.12-0.45,0.2-1.08,1.32-0.4c0.28-0.25,0.26-0.63,0.26-0.63
	c0.08-0.04,0.14-0.17,0.14-0.23c0-0.19-0.9-0.69-1.13-0.75c-0.06-0.27-0.4-0.66-1.46-0.52c-0.5,0.06-0.86-0.07-0.69-0.36
	c0.03-0.05-0.06-0.06-0.11-0.01c-0.12,0.12-0.27,0.44,0.16,0.66c0.48,0.24,0.51,0.73,0.52,0.8c0.01,0.1-0.12,0.11-0.14,0.01
	c-0.22-0.82-1.34-0.99-2-0.56c0.04,0.44,0.51,0.73,0.77,0.73c0.15,0,0.35-0.15,0.35-0.35c0-0.1,0.05-0.09,0.08-0.01
	c0.11,0.29-0.32,0.89-0.96,0.53c-0.65,0.65-0.39,1.46-0.33,1.75c0.12,0.53-0.14,1.05-0.62,0.81c-0.02-0.01-0.05-0.02-0.05,0.04
	C6.89,46.03,7.32,46.41,7.84,46.12z M11.42,42.84c-0.3,0.34-0.8,0.26-0.92-0.3C11.13,42.51,11.4,42.57,11.42,42.84z M30.82,44.14
	c-0.33,0-0.64-0.14-0.7-0.4c-0.01-0.06-0.07-0.09-0.09,0.01c-0.16,0.56,0.24,0.83,0.63,0.83c0.43,0,0.67-0.31,1.28-0.41
	c0.27-0.05,0.45,0,0.45-0.09c0-0.08-0.4-0.08-0.45-0.08C31.31,44,31.23,44.14,30.82,44.14z M37.11,45.7c0-0.06-0.02-0.05-0.05-0.04
	c-0.48,0.24-0.74-0.28-0.62-0.81c0.07-0.3,0.33-1.1-0.33-1.75c-0.64,0.37-1.07-0.24-0.96-0.53c0.03-0.08,0.08-0.09,0.08,0.01
	c0,0.2,0.21,0.35,0.35,0.35c0.26,0,0.73-0.29,0.77-0.73c-0.66-0.43-1.78-0.26-2,0.56c-0.03,0.1-0.15,0.09-0.14-0.01
	c0-0.07,0.03-0.56,0.52-0.8c0.44-0.22,0.28-0.54,0.16-0.66c-0.05-0.05-0.14-0.04-0.11,0.01c0.17,0.29-0.19,0.42-0.69,0.36
	c-1.05-0.14-1.4,0.25-1.46,0.52c-0.23,0.06-1.13,0.56-1.13,0.75c0,0.06,0.05,0.19,0.14,0.23c0,0-0.02,0.38,0.26,0.63
	c1.12-0.68,1.43-0.04,1.32,0.4c0,0-0.2,0.16-0.95,0.16c0,0,0.04,0.27,0.1,0.35c0,0-0.17,0.22-0.05,0.42c0,0,0.39-0.29,1.06-0.26
	c0,0,0.43,0.65-1.16,0.96c-1.59,0.31-2.1,1.81-2.1,2.64c0,0.04,0.02,0.06,0.05,0.06c1.29-0.24,1.88,1.1,3.55,0.94
	c-0.15-0.39,0.01-0.8,0.01-0.8c0.13,0.35,0.45,0.59,0.67,0.71c0.59-0.13,0.98-0.42,1.07-0.59c0,0-0.63-0.52-0.22-1.46
	c0,0,0.4,0.63,1.22,0.29c0.07-0.03,0.06-0.08,0.01-0.1c-1.11-0.36-0.39-1.29-0.32-1.39C36.68,46.41,37.11,46.03,37.11,45.7z
	 M33.49,42.54c-0.12,0.56-0.62,0.64-0.92,0.3C32.6,42.57,32.87,42.51,33.49,42.54z M21.71,33.15c0,0.14,0.06,0.26,0.11,0.33
	c0.1,0.14,0.08,0.22,0.04,0.26c-0.05,0.05-0.12,0.06-0.26-0.04c-0.07-0.05-0.19-0.11-0.33-0.11c-0.24,0-0.36,0.16-0.36,0.29
	c0,0.14,0.12,0.29,0.36,0.29c0.14,0,0.26-0.06,0.33-0.11c0.14-0.1,0.22-0.08,0.26-0.04c0.05,0.05-0.02,0.53-0.08,0.91
	c-0.4,0.08-0.59,0.4-0.59,0.59c0,0.48,0.51,0.76,0.82,0.92c0.3-0.16,0.82-0.44,0.82-0.92c0-0.19-0.19-0.51-0.59-0.59
	c-0.05-0.38-0.12-0.87-0.08-0.91c0.05-0.05,0.12-0.06,0.26,0.04c0.07,0.05,0.19,0.11,0.33,0.11c0.24,0,0.36-0.16,0.36-0.29
	c0-0.14-0.12-0.29-0.36-0.29c-0.14,0-0.26,0.06-0.33,0.11c-0.14,0.1-0.22,0.08-0.26,0.04c-0.05-0.05-0.06-0.12,0.04-0.26
	c0.05-0.07,0.11-0.19,0.11-0.33c0-0.24-0.16-0.36-0.29-0.36C21.86,32.79,21.71,32.91,21.71,33.15z M22,36.72
	c-0.32,0-0.59,0.26-0.59,0.59c0,0.32,0.26,0.59,0.59,0.59c0.32,0,0.59-0.26,0.59-0.59C22.59,36.98,22.32,36.72,22,36.72z M22,42.35
	c2.35,0,3.67,0.45,3.67,0.45c0.01-1.18,0-1.85,0.68-1.75c-0.37-1,1.23-1.39,1.23-2.68c0-0.85-0.6-0.95-0.78-0.95
	c-0.53,0-0.45,0.35-0.9,0.35c-0.06,0-0.11-0.01-0.11,0.03c0,0.15,0.13,0.4,0.33,0.4c0.28,0,0.28-0.28,0.49-0.28
	c0.09,0,0.22,0.07,0.22,0.36c0,0.55-0.36,1.16-0.79,1.64c-0.1-0.14-0.23-0.22-0.39-0.22c-0.25,0-0.47,0.26-0.47,0.59
	c0,0.12,0.02,0.21,0.06,0.31c-0.14,0.08-0.27,0.12-0.36,0.12c-0.19,0-0.48-0.08-0.48-0.5c0-0.94,1.26-1.77,1.26-2.96
	c0-0.57-0.38-1.14-1.17-1.14c-0.85,0-0.69,0.78-1.43,0.78c-0.03,0-0.06,0.01-0.06,0.04c0,0.05,0.13,0.48,0.51,0.48
	c0.41,0,0.52-0.71,0.88-0.71c0.14,0,0.34,0.08,0.34,0.56c0,0.37-0.18,0.97-0.45,1.55c-0.1-0.1-0.23-0.17-0.37-0.17
	c-0.32,0-0.54,0.31-0.54,0.67c0,0.23,0.09,0.45,0.25,0.6c-0.19,0.24-0.38,0.43-0.63,0.43c-0.51,0-0.73-0.29-0.73-0.6
	c0-0.34,0.62-0.46,0.62-1c0-0.36-0.23-0.57-0.46-0.57c-0.24,0-0.37,0.16-0.39,0.16c-0.03,0-0.15-0.16-0.39-0.16
	c-0.23,0-0.46,0.2-0.46,0.57c0,0.53,0.62,0.66,0.62,1c0,0.31-0.22,0.6-0.73,0.6c-0.26,0-0.45-0.19-0.63-0.43
	c0.16-0.15,0.25-0.37,0.25-0.6c0-0.37-0.23-0.67-0.54-0.67c-0.15,0-0.28,0.07-0.37,0.17c-0.26-0.58-0.45-1.18-0.45-1.55
	c0-0.48,0.2-0.56,0.34-0.56c0.36,0,0.48,0.71,0.88,0.71c0.38,0,0.51-0.43,0.51-0.48c0-0.03-0.03-0.04-0.06-0.04
	c-0.74,0-0.58-0.78-1.43-0.78c-0.79,0-1.17,0.57-1.17,1.14c0,1.19,1.26,2.02,1.26,2.96c0,0.42-0.29,0.5-0.48,0.5
	c-0.1,0-0.22-0.05-0.36-0.12c0.04-0.1,0.06-0.19,0.06-0.31c0-0.33-0.22-0.59-0.47-0.59c-0.16,0-0.29,0.08-0.39,0.22
	c-0.43-0.47-0.79-1.09-0.79-1.64c0-0.28,0.13-0.36,0.22-0.36c0.21,0,0.21,0.28,0.49,0.28c0.21,0,0.33-0.26,0.33-0.4
	c0-0.04-0.06-0.03-0.11-0.03c-0.45,0-0.37-0.35-0.9-0.35c-0.18,0-0.78,0.1-0.78,0.95c0,1.3,1.6,1.69,1.23,2.68
	c0.68-0.1,0.67,0.56,0.68,1.75C18.33,42.8,19.65,42.35,22,42.35z M17.7,44.1c-0.64,0.14-1.1,0.27-1.3,0.33
	c0.01-0.28,0.12-0.54,0.37-0.6c0.03-0.01,0.04-0.05,0.01-0.07c-0.57-0.38-0.87,0.35-0.88,0.37c-0.2-0.02-0.51,0.05-0.51,0.32
	c0,0.82-1.86,1.27-2.3,1.33c0.76,0.29,1.08,1.25,1.08,1.25c0.55-0.55,1.2-1.04,1.34-1.04c0.15,0,0.2,0.18,0.21,0.29
	c0,0.04,0.04,0.05,0.06,0.02c0.29-0.43,0.15-0.53,0.13-0.66c-0.02-0.1,0.01-0.48,0.43-0.43v5.44l-0.22,0.04
	c-0.1,0.02-0.89-0.66-1.81-1.29c-0.91-0.63-1.4-0.25-2.44,0.31c-1.36,0.74-2.73,0.07-2.73,0.07c-1.17,0.84-1.57,3.26-1.57,3.26
	c-0.23,0.1-0.62,0.21-0.99,0.21c-0.89,0-1.06-0.54-1.06-0.87c0-1.38,1.73-1.97,1.73-3.33c0-0.33-0.15-1.67-1.81-1.67
	c-0.21,0-1.48,0-1.49,0c-0.62,0-0.78-0.45-0.86-0.62C3.06,46.7,3,46.74,3.02,46.79c0.05,0.11-0.07,0.29-0.07,0.63
	c0,0.55,0.32,0.88,0.93,0.88c0.28,0,0.53-0.08,0.62-0.13c0.06-0.03,0.09,0.02,0.06,0.05c-0.26,0.31-0.28,0.88-0.18,1.02
	c0.03,0.03,0.06,0.02,0.06,0c0.15-0.58,0.69-1.14,1.43-1.14c0.9,0,0.9,0.77,0.9,0.95c0,1.11-1.95,1.92-1.95,3.44
	c0,1.55,1.63,1.88,2.58,1.63c-0.06,1.55-1.83,2.07-1.88,0.97c0-0.05-0.04-0.07-0.07,0c-0.22,0.55-0.14,1.03,0.55,1.18
	c0.05,0.01,0.02,0.04-0.02,0.07C5.31,56.79,5.68,58.5,5.71,59c0.05,0.72-0.67,0.64-0.73,0.62c-0.03-0.01-0.06,0-0.01,0.06
	c0.51,0.62,1.14,0.05,1.14,0.05c0.48,0.15,0.18,0.56-0.14,0.77c-0.05,0.03-0.05,0.07,0.01,0.07c0.07,0,0.81,0.07,0.94-0.52
	c0.33,0.39,0.81,0.25,0.91,0.2c0.14-0.07,0.83-0.32,0.9,0.45c0,0.06,0.04,0.02,0.06-0.01c0.52-0.66-0.04-1.06-0.35-1.11
	c0.03-0.04,0.44-0.38,0.82,0.1c0.03,0.03,0.05,0.04,0.05-0.03c0.04-0.83-0.63-0.91-1.07-0.55c-0.02-0.09-0.17-0.55,0.49-0.54
	c0.02,0,0.05-0.02,0.01-0.06c-0.51-0.54-0.94-0.05-1.03,0.07c-0.23,0.27-0.8,0.16-0.85,0.16c0.18-2.89,2.72-1.87,3.07-3.27
	c0.02-0.07,0.05-0.05,0.06-0.02c0.1,0.34,0.96,0.39,1.12-0.28c0.01-0.04,0-0.07-0.03-0.04c-0.74,0.74-2.4-1.56-0.13-3.43
	c1.93-1.59,3.67-0.71,4.32-0.18c0.03,0.23-0.1,0.31-0.19,0.33c-0.03,0.01-0.04,0.04,0.01,0.06c0.18,0.07,0.44,0.05,0.57-0.12
	c0.42,0.29,0.06,0.66-0.11,0.76c-0.04,0.03-0.02,0.05,0.01,0.06c0.38,0.07,0.69-0.32,0.71-0.54l0.06,0.04v1.64
	c0,2.34,2.7,2.66,5.66,4.64c2.96-1.98,5.66-2.31,5.66-4.64v-1.64l0.06-0.04c0.02,0.22,0.33,0.61,0.71,0.54
	c0.04-0.01,0.05-0.03,0.01-0.06c-0.17-0.1-0.52-0.47-0.11-0.76c0.12,0.17,0.38,0.19,0.57,0.12c0.05-0.02,0.04-0.05,0.01-0.06
	c-0.09-0.03-0.23-0.1-0.19-0.33c0.66-0.52,2.39-1.41,4.32,0.18c2.26,1.87,0.6,4.17-0.13,3.43c-0.03-0.03-0.04,0-0.03,0.04
	c0.16,0.68,1.02,0.63,1.12,0.28c0.01-0.03,0.04-0.05,0.06,0.02c0.35,1.4,2.9,0.38,3.07,3.27c-0.05,0.01-0.62,0.11-0.85-0.16
	c-0.1-0.12-0.52-0.61-1.03-0.07c-0.03,0.03,0,0.06,0.01,0.06c0.66-0.02,0.52,0.45,0.49,0.54c-0.44-0.36-1.11-0.29-1.07,0.55
	c0,0.07,0.03,0.06,0.05,0.03c0.38-0.48,0.79-0.13,0.82-0.1c-0.31,0.05-0.87,0.45-0.35,1.11c0.02,0.03,0.05,0.07,0.06,0.01
	c0.07-0.78,0.76-0.52,0.9-0.45c0.1,0.05,0.58,0.19,0.91-0.2c0.13,0.59,0.87,0.52,0.94,0.52c0.05,0,0.06-0.04,0.01-0.07
	c-0.32-0.21-0.61-0.62-0.14-0.77c0,0,0.63,0.57,1.14-0.05c0.04-0.06,0.02-0.07-0.01-0.06c-0.06,0.02-0.78,0.11-0.73-0.62
	c0.03-0.5,0.4-2.21-0.28-2.64c-0.04-0.03-0.07-0.05-0.02-0.07c0.69-0.15,0.78-0.63,0.55-1.18c-0.03-0.07-0.07-0.06-0.07,0
	c-0.05,1.11-1.82,0.58-1.88-0.97c0.95,0.24,2.58-0.09,2.58-1.63c0-1.52-1.95-2.34-1.95-3.44c0-0.19,0-0.95,0.9-0.95
	c0.74,0,1.28,0.55,1.43,1.14c0.01,0.03,0.04,0.04,0.06,0c0.11-0.14,0.09-0.72-0.18-1.02c-0.03-0.03,0-0.08,0.06-0.05
	c0.08,0.05,0.34,0.13,0.62,0.13c0.6,0,0.93-0.33,0.93-0.88c0-0.35-0.12-0.52-0.07-0.63c0.02-0.05-0.04-0.09-0.07-0.02
	c-0.09,0.17-0.24,0.62-0.86,0.62c-0.01,0-1.27,0-1.49,0c-1.66,0-1.81,1.34-1.81,1.67c0,1.36,1.73,1.95,1.73,3.33
	c0,0.32-0.16,0.87-1.06,0.87c-0.37,0-0.75-0.1-0.99-0.21c0,0-0.4-2.42-1.57-3.26c0,0-1.37,0.67-2.73-0.07
	c-1.04-0.56-1.53-0.94-2.44-0.31c-0.91,0.63-1.71,1.31-1.8,1.29l-0.22-0.04v-5.44c0.42-0.04,0.45,0.33,0.43,0.43
	c-0.02,0.13-0.16,0.23,0.13,0.66c0.02,0.03,0.06,0.02,0.06-0.02c0.01-0.11,0.07-0.29,0.21-0.29c0.14,0,0.79,0.49,1.34,1.04
	c0,0,0.32-0.96,1.08-1.25c-0.43-0.07-2.3-0.52-2.3-1.33c0-0.27-0.31-0.34-0.51-0.32c-0.01-0.02-0.31-0.75-0.88-0.37
	c-0.03,0.02-0.02,0.06,0.01,0.07c0.25,0.06,0.36,0.32,0.37,0.6c-0.54-0.17-2.86-0.82-5.6-0.82c-1.33,0-2.56,0.15-3.54,0.33v1.89
	H17.7V44.1L17.7,44.1 M12.64,63.42c-0.2-0.08-0.34-0.21-0.34-0.48v-1.17c-0.34-0.12-1.25-0.47-3.08-0.47c-1.52,0-2,0.34-2.02,0.46
	l-0.4,2.23c0,0,0.62-0.56,2.82-0.42c2.66,0.17,5.41,1.74,5.41,0.07v-0.98C12.94,62.66,12.64,63.32,12.64,63.42z M28.98,62.66v0.98
	c0,1.67,2.75,0.1,5.41-0.07c2.2-0.14,2.82,0.42,2.82,0.42l-0.4-2.23c-0.02-0.12-0.5-0.46-2.02-0.46c-1.83,0-2.75,0.35-3.08,0.47
	v1.17c0,0.27-0.13,0.4-0.34,0.48C31.36,63.32,31.06,62.66,28.98,62.66z M22,61.65c4.28,0,8.62,0.22,9.19,0.87
	c0.05,0.05,0.06,0,0.06-0.04l0-2.27c0-0.66-4.48-1.05-9.25-1.05c-4.77,0-9.25,0.38-9.25,1.05l0,2.27c0,0.04,0.02,0.09,0.06,0.04
	C13.38,61.87,17.72,61.65,22,61.65z M18.19,50.96l-0.43-0.11l-0.04,0.05l-0.5-0.22c0,0,0.37,0,0.45,0c0.04,0,0.04-0.03,0.02-0.05
	c-0.2-0.2-0.38-0.38-0.38-0.38s0.2,0.08,0.5,0.18c0.03,0.01,0.05-0.01,0.03-0.03c-0.14-0.21-0.33-0.48-0.33-0.48s0.4,0.27,0.49,0.33
	c0.03,0.02,0.05,0,0.04-0.03c-0.11-0.27-0.23-0.57-0.23-0.57l0.44,0.42c0.02,0.02,0.04,0.01,0.04-0.02
	c-0.04-0.2-0.12-0.57-0.12-0.57l0.33,0.48c0.02,0.03,0.04,0.02,0.04-0.01c0-0.09,0.01-0.52,0.01-0.52s0.14,0.31,0.21,0.48
	c0.01,0.03,0.04,0.03,0.06-0.01c0.02-0.05,0.17-0.4,0.17-0.4l0.02,0.54l-0.07,0.01l-0.09,0.65c0.65-0.15,1.45-1.26,2.07-1.26
	c0.73,0,1,0.86,2.36,0.42c0.34,0.51,0.46,0.95,0.59,1.56c0.52,0.49,1.26,0.33,1.26-0.19c0-0.7-0.77-0.84-0.77-1.57
	c0-0.33,0.23-0.8,0.86-0.8c0.33,0,0.82,0.14,1.1,0.14c0.33,0,0.4-0.24,0.44-0.34c0.03-0.07,0.12-0.05,0.11,0.01
	c-0.01,0.07,0.04,0.16,0.04,0.32c0,0.46-0.68,0.52-0.76,0.47c-0.03-0.02-0.06,0.01-0.03,0.03c0.1,0.08,0.08,0.36-0.04,0.53
	c-0.01,0.02-0.03,0.02-0.04,0c-0.07-0.33-0.46-0.74-0.81-0.74c-0.13,0-0.38,0.07-0.38,0.37c0,0.42,0.84,0.8,0.84,1.66
	c0,0.9-0.89,1.11-1.79,0.89c0.03,0.85,1.3,1.36,1.33,0.75c0-0.04,0.02-0.02,0.04,0c0.19,0.26,0.1,0.46-0.14,0.56
	c0.22,0.1,0.26,0.55,0.33,0.81c0.1,0.4,0.52,0.18,0.54,0.17c0.02-0.01,0.03,0,0.02,0.02c-0.16,0.42-0.59,0.26-0.59,0.26
	c-0.22,0.16,0.05,0.3,0.25,0.36c0.03,0.01,0.03,0.03,0,0.04c-0.15,0.05-0.47,0.15-0.62-0.11c-0.11,0.28-0.35,0.27-0.44,0.27
	c-0.16,0-0.27,0.17-0.23,0.39c0,0.02-0.01,0.03-0.03,0.01c-0.39-0.26-0.17-0.56-0.01-0.64c-0.03-0.02-0.3-0.13-0.41,0.19
	c-0.01,0.02-0.02,0.03-0.03,0c-0.17-0.45,0.2-0.59,0.47-0.47c-0.02-0.06-0.16-0.29-0.51-0.21c-0.02,0-0.03,0-0.02-0.02
	c0.06-0.14,0.23-0.34,0.55-0.14c0.16,0.1,0.45-0.05,0.47-0.06c-0.57-1.13-1.67-0.18-1.92-1.07c0-0.02-0.03-0.03-0.04,0.01
	c-0.06,0.19-0.54,0.2-0.63-0.17c-0.01-0.03,0-0.03,0.02-0.01c0.07,0.07,0.22,0.14,0.42-0.15c0.13-0.19,0.15-0.44,0.15-0.62
	c0-0.69-0.69-1.84-1.76-1.84c-0.68,0-1.41,0.26-1.95,0.66l0.5,0.12c-0.05,0.51-0.54,0.81-0.99,0.68l0.08-0.58
	c-0.08,0.02-0.28,0.09-0.38,0.24c-0.01,0.01-0.02,0.01-0.03,0c-0.09-0.33,0.18-0.5,0.27-0.54c0.01-0.01,0.01-0.01-0.01-0.01
	c-0.24-0.01-0.38,0.17-0.42,0.23c-0.01,0.01-0.02,0.01-0.02,0C18.11,51.25,18.07,51.08,18.19,50.96z M19.68,54.89
	c-0.19,0.24-0.36,0.01-0.62,0.01c-0.24,0-0.28,0.2-0.28,0.28c0,0.01-0.01,0.02-0.02,0c-0.27-0.37,0.03-0.57,0.21-0.6
	c-0.03-0.03-0.29-0.2-0.46,0.04c-0.01,0.02-0.03,0.01-0.03-0.01c-0.01-0.46,0.35-0.49,0.59-0.29c0.04-0.17-0.07-0.29-0.26-0.3
	c-0.02,0-0.03-0.02-0.02-0.03c0.08-0.09,0.16-0.13,0.24-0.13c0.25,0,0.29,0.32,0.45,0.32c0.25,0,0.6-0.34,0.64-0.37
	c-0.01-0.02-0.25-0.66-0.2-1.05c0-0.02-0.01-0.02-0.02-0.01c-0.12,0.07-0.43,0.07-0.43-0.31c0-0.03,0.01-0.03,0.03-0.01
	c0.13,0.19,0.35-0.02,0.46-0.15c0.12-0.13,0.75-1.04,1.58-1.04c0.18,0,0.42,0.1,0.61,0.23c-0.29,0.35,0,0.69,0.21,0.65
	c0.03,0,0.03,0.02,0.01,0.03c-1.11,0.42-1.6,0.58-1.6,1.51c0,0.48,0.17,0.75,0.45,0.69c0.02-0.01,0.03,0,0.01,0.02
	c-0.1,0.12-0.22,0.16-0.32,0.16c-0.23,0-0.27-0.13-0.39-0.13c-0.13,0-0.54,0.24-0.54,0.45c0,0.08,0.05,0.18,0.19,0.28
	c0.01,0.01,0,0.01,0,0.02C20.08,55.18,19.76,55.2,19.68,54.89z M22.6,45.88c-0.35-0.02-0.57,0.06-0.56,0.17
	C22.21,46.23,22.43,46.21,22.6,45.88z M21.32,46.74c0.24-0.06,0.51-0.03,0.54-0.02c0.04,0.01,0.04,0.07-0.01,0.08
	c-0.51,0.07-0.53,0.3-0.86,0.3c-0.21,0-0.45-0.22-0.36-0.53c0.01-0.04,0.04-0.04,0.05,0C20.72,46.69,20.92,46.84,21.32,46.74z
	 M14.7,58.04c0.34,0.43,0.66,0.03,1.1,0.03c0.22,0,0.48,0.07,0.53,0.51c0,0.02,0.02,0.03,0.04,0c0.48-0.66-0.07-1.03-0.38-1.08
	c0.07-0.06,0.54-0.35,0.84,0.08c0.02,0.02,0.05,0.02,0.05-0.02c0-0.83-0.63-0.89-1.08-0.53c-0.09-0.33,0.16-0.54,0.48-0.54
	c0.04,0,0.05-0.03,0.03-0.05c-0.56-0.6-0.98,0.15-1.07,0.27c-0.22,0.3-1.02-0.26-1.34-0.59c0,0,0.71-0.74,0.71-1.42
	c0-0.04,0-0.1,0-0.12c0-0.02,0.01-0.03,0.03-0.02c0.07,0.04,0.17,0.07,0.26,0.07c0.16,0,0.47-0.05,0.47-0.62
	c0-0.04-0.02-0.04-0.04-0.02c-0.08,0.12-0.18,0.15-0.25,0.15c-0.57,0-1.76-1.9-3.16-1.9c-0.37,0-1.06,0.26-1.41,0.64
	c0.17,0.1,0.2,0.31,0.18,0.46c-0.03,0.24-0.22,0.36-0.41,0.42c-0.03,0.01-0.04,0.03,0,0.05c0.71,0.27,2,0.76,2.29,1.01
	c0.35,0.3,0.28,0.87,0.08,1.65c-0.19,0.75-0.61,0.65-0.76,0.62c-0.02,0-0.03,0.01-0.02,0.03c0.18,0.23,0.41,0.31,0.6,0.31
	c0.37,0,0.51-0.23,0.7-0.23c0.32,0,0.99,0.46,0.99,0.81c0,0.2-0.15,0.37-0.35,0.5c-0.01,0.01-0.01,0.02,0.01,0.03
	C13.95,58.55,14.58,58.6,14.7,58.04z M30.2,58.53c0.02,0,0.02-0.02,0.01-0.03c-0.2-0.13-0.35-0.31-0.35-0.5
	c0-0.35,0.67-0.81,0.99-0.81c0.19,0,0.33,0.23,0.7,0.23c0.19,0,0.41-0.08,0.6-0.31c0.01-0.02,0.01-0.03-0.02-0.03
	c-0.15,0.02-0.57,0.13-0.76-0.62c-0.2-0.78-0.27-1.35,0.08-1.65c0.29-0.25,1.58-0.74,2.29-1.01c0.04-0.02,0.03-0.04,0-0.05
	c-0.2-0.05-0.39-0.17-0.41-0.42c-0.02-0.15,0.01-0.36,0.18-0.46c-0.35-0.38-1.04-0.64-1.41-0.64c-1.4,0-2.59,1.9-3.16,1.9
	c-0.07,0-0.16-0.03-0.25-0.15c-0.02-0.03-0.04-0.03-0.04,0.02c0,0.57,0.3,0.62,0.47,0.62c0.09,0,0.19-0.03,0.26-0.07
	c0.02-0.01,0.03,0,0.03,0.02c0,0.02,0,0.08,0,0.12c0,0.68,0.71,1.42,0.71,1.42c-0.32,0.33-1.12,0.89-1.34,0.59
	c-0.1-0.12-0.51-0.87-1.07-0.27c-0.02,0.02-0.01,0.05,0.03,0.05c0.31,0,0.56,0.21,0.48,0.54c-0.45-0.36-1.08-0.3-1.08,0.53
	c0,0.03,0.03,0.04,0.05,0.02c0.3-0.43,0.77-0.14,0.84-0.08c-0.32,0.05-0.87,0.42-0.38,1.08c0.02,0.03,0.04,0.02,0.04,0
	c0.05-0.43,0.31-0.51,0.53-0.51c0.44,0,0.77,0.41,1.1-0.03C29.42,58.6,30.05,58.55,30.2,58.53z M18.85,47.56
	c-0.04,0.06-0.19,0-0.25-0.03c-0.01-0.01-0.02,0-0.01,0.01c0.04,0.08,0.18,0.32,0.39,0.32c0.1,0,0.23-0.06,0.27-0.12
	c0,0,0.83,0.27,1.23,0.38c-0.16,0.21-0.26,0.47-0.28,0.74c-0.33-0.2-1.65-0.91-1.65-0.91l-0.41,0.56c-0.07,0.09-0.39-0.15-0.33-0.24
	l0.31-0.43c-0.1-0.11-0.35-0.04-0.42-0.02c-0.01,0-0.02,0-0.01-0.02c0.04-0.08,0.19-0.34,0.58-0.23c0-0.24-0.35-0.16-0.44-0.14
	c-0.01,0-0.01,0,0-0.01c0.1-0.1,0.38-0.33,0.7-0.14l0.14-0.19l-0.28-0.3l0.18-0.24l0.2,0.27l1.52-2.08
	c0.04-0.05,0.34-0.14,0.45-0.16c0.01,0.12,0.02,0.43-0.01,0.48l-1.5,2.1l0.32,0.1l-0.17,0.24l-0.37-0.17L18.85,47.56z M24.18,47.22
	c0,0.19,0.12,0.47,0.37,0.39c0.01-0.01,0.02,0,0.02,0.01c-0.04,0.21-0.42,0.41-0.59,0.16c-0.15,0.33-0.12,0.63,0.21,0.81
	c0.02,0.01,0.02,0.03,0,0.05c-0.2,0.14-0.51,0.11-0.65-0.17c-0.27,0.21-0.23,0.64-0.07,0.79c0,0-0.76,0.45-1.44,0.13
	c-0.45-0.22-0.82-0.5-1.41-0.45c0.08-0.82,0.49-1.04,1.25-1.16c0.6-0.1,0.68-0.38,0.59-0.59c-0.21-0.05-0.58,0.13-0.58,0.13
	c-0.07-0.11,0.03-0.23,0.03-0.23c-0.04-0.05-0.06-0.2-0.06-0.2c0.42,0,0.5-0.09,0.5-0.09c0.08-0.44-0.37-0.49-0.71-0.25
	c-0.16-0.14-0.13-0.33-0.13-0.33c-0.05-0.02-0.08-0.1-0.08-0.13c0-0.1,0.5-0.39,0.63-0.42c0.03-0.15,0.21-0.35,0.75-0.3
	c0.06-0.14-0.04-0.66-0.1-0.79c-0.02-0.04,0.01-0.07,0.06-0.04c0.19,0.12,0.37,0.55,0.5,0.56c0,0,0.6-0.31,0.63-0.3
	c0.03,0.02,0.11,0.68,0.11,0.68c0.08,0.1,0.54,0,0.74,0.09c0.05,0.02,0.05,0.06,0,0.07c-0.15,0.03-0.63,0.23-0.71,0.37
	C24.31,46.44,24.18,47.05,24.18,47.22z"/>
<path class="st2" d="M63.19,46.04c-0.23,0.03-0.48,0.05-0.74,0.05c-0.16,0-0.3,0-0.44-0.01c-0.12,0-0.25-0.01-0.37-0.01
	c-0.12-0.01-0.23-0.03-0.34-0.04c-0.12-0.01-0.23-0.04-0.36-0.07v-0.26c0.56-0.14,0.84-0.48,0.81-1.04l-0.34-6.24h-0.03l-2.45,7.62
	l-0.54,0.07l-2.47-7.68l-0.01,0.01l-0.43,6.88l0.89,0.23v0.3c-0.15,0.04-0.29,0.08-0.4,0.11c-0.12,0.03-0.25,0.06-0.36,0.07
	c-0.12,0.03-0.25,0.04-0.38,0.04c-0.12,0.01-0.27,0.01-0.44,0.01c-0.15,0-0.33-0.01-0.52-0.04c-0.18-0.03-0.37-0.05-0.54-0.1v-0.25
	c0.26-0.08,0.45-0.18,0.58-0.3c0.14-0.14,0.22-0.3,0.23-0.51l0.6-7.02l-0.8-0.23v-0.4c0.15-0.01,0.32-0.04,0.48-0.05
	c0.16-0.01,0.33-0.01,0.49-0.03c0.16,0,0.33-0.01,0.48-0.01c0.15,0,0.29,0,0.41,0h0.5l2.16,6.66h0.01l2.09-6.66h0.59
	c0.25,0,0.52,0,0.81,0.01c0.29,0.01,0.58,0.04,0.85,0.08v0.4l-0.85,0.21l0.6,7.55l0.8,0.15v0.3C63.61,45.94,63.42,46,63.19,46.04z"
	/>
<path class="st2" d="M67.02,45.95c-0.12,0.03-0.23,0.06-0.37,0.07c-0.12,0.01-0.26,0.03-0.4,0.04c-0.15,0-0.3,0.01-0.48,0.01
	c-0.15,0-0.33-0.01-0.51-0.03c-0.19-0.01-0.37-0.04-0.52-0.1v-0.23c0.1-0.03,0.18-0.07,0.27-0.12c0.08-0.05,0.17-0.11,0.23-0.18
	c0.07-0.05,0.12-0.12,0.17-0.21c0.04-0.07,0.05-0.15,0.05-0.23v-4.64l-0.88-0.37v-0.29c0.32-0.1,0.62-0.15,0.91-0.19
	c0.29-0.06,0.54-0.07,0.73-0.07h0.44l-0.07,0.74v5.22l0.77,0.21v0.26C67.24,45.89,67.13,45.93,67.02,45.95z M66.75,37.64
	c-0.04,0.1-0.1,0.19-0.16,0.26c-0.07,0.08-0.15,0.14-0.25,0.18c-0.1,0.05-0.19,0.07-0.3,0.07c-0.1,0-0.19-0.01-0.29-0.05
	c-0.08-0.04-0.16-0.1-0.23-0.17c-0.06-0.07-0.11-0.15-0.15-0.25c-0.04-0.1-0.05-0.21-0.05-0.32c0-0.11,0.01-0.21,0.05-0.3
	c0.03-0.1,0.08-0.18,0.15-0.26c0.07-0.08,0.15-0.14,0.25-0.18c0.1-0.04,0.21-0.07,0.33-0.07c0.1,0,0.19,0.01,0.28,0.05
	c0.08,0.03,0.16,0.08,0.23,0.15c0.07,0.05,0.11,0.14,0.15,0.23c0.04,0.08,0.06,0.19,0.06,0.3C66.81,37.42,66.8,37.53,66.75,37.64z"
	/>
<path class="st2" d="M73.41,46.08c-0.14,0-0.29-0.01-0.45-0.03c-0.15-0.01-0.3-0.04-0.44-0.1v-0.23c0.18-0.08,0.3-0.18,0.37-0.33
	c0.08-0.14,0.12-0.33,0.12-0.58v-2.62c0-0.33-0.04-0.62-0.1-0.85c-0.07-0.25-0.16-0.44-0.29-0.58c-0.12-0.15-0.26-0.26-0.43-0.33
	c-0.18-0.07-0.36-0.1-0.56-0.1c-0.28,0-0.55,0.04-0.8,0.12c-0.26,0.08-0.47,0.19-0.62,0.3v4.62l0.77,0.21v0.26
	c-0.12,0.04-0.23,0.08-0.34,0.11c-0.12,0.03-0.25,0.06-0.37,0.07c-0.12,0.01-0.26,0.03-0.41,0.04c-0.14,0-0.29,0.01-0.47,0.01
	c-0.16,0-0.34-0.01-0.52-0.03c-0.18-0.01-0.36-0.04-0.51-0.1v-0.23c0.1-0.03,0.18-0.07,0.26-0.12c0.1-0.05,0.17-0.11,0.23-0.18
	c0.07-0.05,0.12-0.12,0.18-0.21c0.04-0.07,0.05-0.15,0.05-0.23v-4.64l-0.89-0.37v-0.3c0.32-0.1,0.62-0.15,0.91-0.19
	c0.29-0.04,0.54-0.06,0.74-0.06h0.33v0.74c0.23-0.23,0.54-0.43,0.89-0.56c0.36-0.14,0.74-0.21,1.14-0.21c0.29,0,0.55,0.04,0.78,0.14
	c0.23,0.1,0.44,0.23,0.6,0.41c0.17,0.18,0.3,0.4,0.4,0.66c0.08,0.28,0.14,0.59,0.14,0.93v3.85l0.71,0.21v0.26
	C74.47,46,73.98,46.08,73.41,46.08z"/>
<path class="st2" d="M78.16,45.95c-0.12,0.03-0.23,0.06-0.37,0.07c-0.12,0.01-0.26,0.03-0.4,0.04c-0.15,0-0.3,0.01-0.48,0.01
	c-0.15,0-0.33-0.01-0.51-0.03c-0.19-0.01-0.37-0.04-0.52-0.1v-0.23c0.1-0.03,0.18-0.07,0.27-0.12c0.08-0.05,0.17-0.11,0.23-0.18
	c0.07-0.05,0.12-0.12,0.17-0.21c0.04-0.07,0.05-0.15,0.05-0.23v-4.64l-0.88-0.37v-0.29c0.32-0.1,0.62-0.15,0.91-0.19
	c0.29-0.06,0.54-0.07,0.73-0.07h0.44l-0.07,0.74v5.22l0.77,0.21v0.26C78.38,45.89,78.27,45.93,78.16,45.95z M77.9,37.64
	c-0.04,0.1-0.1,0.19-0.16,0.26c-0.07,0.08-0.15,0.14-0.25,0.18c-0.1,0.05-0.19,0.07-0.3,0.07c-0.1,0-0.19-0.01-0.29-0.05
	c-0.08-0.04-0.17-0.1-0.23-0.17c-0.06-0.07-0.11-0.15-0.15-0.25c-0.04-0.1-0.06-0.21-0.06-0.32c0-0.11,0.01-0.21,0.06-0.3
	c0.03-0.1,0.08-0.18,0.15-0.26c0.07-0.08,0.15-0.14,0.25-0.18c0.1-0.04,0.21-0.07,0.33-0.07c0.1,0,0.19,0.01,0.28,0.05
	c0.08,0.03,0.16,0.08,0.23,0.15c0.07,0.05,0.11,0.14,0.15,0.23c0.04,0.08,0.06,0.19,0.06,0.3C77.96,37.42,77.94,37.53,77.9,37.64z"
	/>
<path class="st2" d="M83.46,44.91c-0.12,0.23-0.3,0.45-0.52,0.63c-0.22,0.19-0.49,0.34-0.81,0.45c-0.3,0.11-0.66,0.16-1.04,0.16
	c-0.6,0-1.04-0.1-1.32-0.29c-0.29-0.18-0.43-0.47-0.43-0.84c0-0.1,0.01-0.19,0.03-0.3c0.03-0.1,0.05-0.18,0.1-0.26
	c0.3,0.29,0.62,0.51,0.92,0.65c0.32,0.15,0.65,0.22,1.02,0.22c0.38,0,0.67-0.08,0.88-0.25c0.19-0.16,0.29-0.36,0.29-0.6
	c0-0.12-0.01-0.23-0.05-0.33c-0.04-0.1-0.11-0.19-0.19-0.29c-0.1-0.1-0.22-0.18-0.37-0.28c-0.14-0.08-0.33-0.18-0.56-0.28
	l-0.69-0.29c-0.4-0.16-0.7-0.4-0.92-0.69c-0.21-0.29-0.32-0.62-0.32-1.02c0-0.28,0.05-0.54,0.17-0.77c0.12-0.25,0.29-0.47,0.49-0.64
	c0.21-0.18,0.45-0.33,0.76-0.44c0.29-0.11,0.62-0.17,0.98-0.17c0.27,0,0.51,0.03,0.7,0.07c0.19,0.03,0.36,0.1,0.48,0.16
	c0.12,0.07,0.22,0.17,0.28,0.26c0.05,0.11,0.08,0.23,0.08,0.36c0,0.11,0,0.21-0.01,0.29c-0.01,0.1-0.04,0.19-0.05,0.29
	c-0.22-0.15-0.47-0.28-0.76-0.37c-0.27-0.1-0.55-0.15-0.81-0.15c-0.22,0-0.41,0.03-0.58,0.07c-0.16,0.04-0.29,0.11-0.4,0.18
	c-0.11,0.08-0.19,0.18-0.25,0.28c-0.04,0.11-0.07,0.22-0.07,0.33c0,0.12,0.01,0.23,0.04,0.33c0.04,0.11,0.1,0.19,0.18,0.28
	c0.08,0.1,0.19,0.18,0.33,0.25c0.14,0.08,0.32,0.15,0.52,0.23l0.74,0.29c0.25,0.1,0.45,0.21,0.63,0.32
	c0.17,0.11,0.32,0.23,0.43,0.37c0.1,0.15,0.18,0.3,0.23,0.47c0.04,0.17,0.07,0.36,0.07,0.55C83.64,44.4,83.59,44.66,83.46,44.91z"/>
<path class="st2" d="M86.83,46.13c-0.55,0-0.96-0.15-1.24-0.45c-0.26-0.3-0.4-0.78-0.4-1.46c0-0.33,0-0.67,0.01-1.02
	c0.01-0.36,0.01-0.69,0.03-1l0.04-1.83h-0.76v-0.45l1.48-1.47l0.45-0.05l-0.06,1.24h1.81l-0.1,0.74h-1.76l-0.03,1.73
	c0,0.29-0.01,0.56-0.01,0.84c0,0.26,0,0.51,0,0.77c0,0.28,0.01,0.51,0.05,0.7c0.04,0.19,0.1,0.34,0.18,0.47
	c0.07,0.11,0.15,0.19,0.26,0.25c0.1,0.05,0.22,0.08,0.34,0.08c0.21,0,0.38-0.03,0.56-0.1c0.17-0.07,0.32-0.15,0.45-0.26l0.14,0.05
	C88.26,45.72,87.77,46.13,86.83,46.13z"/>
<path class="st2" d="M94.18,42.77h-4.05c0,0.38,0.05,0.73,0.15,1.03c0.11,0.3,0.26,0.55,0.44,0.76c0.18,0.21,0.4,0.37,0.65,0.48
	c0.25,0.11,0.51,0.16,0.8,0.16c0.16,0,0.33-0.01,0.51-0.04c0.18-0.03,0.34-0.07,0.51-0.12c0.18-0.04,0.33-0.11,0.49-0.18
	c0.15-0.08,0.3-0.17,0.43-0.25c0.01,0.03,0.03,0.08,0.04,0.15c0.01,0.07,0.01,0.14,0.01,0.21c0,0.17-0.06,0.32-0.17,0.45
	c-0.11,0.14-0.26,0.27-0.47,0.38c-0.21,0.11-0.45,0.19-0.74,0.26c-0.3,0.07-0.63,0.1-0.99,0.1c-0.4,0-0.76-0.07-1.1-0.22
	c-0.36-0.15-0.65-0.36-0.91-0.63c-0.26-0.28-0.47-0.61-0.62-0.99c-0.14-0.38-0.22-0.82-0.22-1.3c0-0.59,0.08-1.13,0.25-1.6
	c0.16-0.45,0.38-0.84,0.66-1.15c0.26-0.3,0.56-0.55,0.91-0.7c0.34-0.16,0.7-0.25,1.06-0.25c0.37,0,0.7,0.06,1,0.18
	c0.29,0.12,0.54,0.29,0.74,0.51c0.21,0.23,0.36,0.5,0.47,0.81c0.11,0.33,0.16,0.67,0.16,1.07c0,0.14,0,0.26,0,0.41
	C94.19,42.44,94.19,42.6,94.18,42.77z M92.99,41.17c-0.07-0.25-0.17-0.45-0.29-0.62c-0.12-0.16-0.26-0.29-0.44-0.37
	c-0.17-0.08-0.36-0.12-0.55-0.12c-0.19,0-0.37,0.06-0.56,0.17c-0.19,0.1-0.36,0.25-0.49,0.43c-0.15,0.18-0.26,0.4-0.36,0.63
	c-0.1,0.25-0.14,0.49-0.14,0.77h2.94C93.09,41.71,93.05,41.42,92.99,41.17z"/>
<path class="st2" d="M99.36,40.35c-0.04,0.15-0.1,0.29-0.17,0.41c-0.12-0.1-0.26-0.18-0.41-0.23c-0.15-0.05-0.29-0.08-0.44-0.08
	c-0.43,0-0.82,0.19-1.21,0.56v4.37l0.95,0.21v0.26c-0.11,0.04-0.23,0.08-0.36,0.11c-0.11,0.03-0.23,0.06-0.37,0.07
	c-0.14,0.01-0.29,0.03-0.44,0.04c-0.17,0-0.34,0.01-0.54,0.01c-0.21,0-0.4-0.01-0.58-0.03c-0.19-0.01-0.37-0.04-0.52-0.1v-0.23
	c0.1-0.03,0.18-0.07,0.26-0.12c0.1-0.05,0.17-0.11,0.23-0.18c0.07-0.05,0.12-0.12,0.18-0.21c0.04-0.07,0.05-0.15,0.05-0.23v-4.64
	l-0.89-0.37v-0.3c0.32-0.1,0.62-0.15,0.91-0.19c0.29-0.04,0.54-0.06,0.74-0.06h0.33v0.96h0.01l0.38-0.43
	c0.18-0.21,0.38-0.36,0.58-0.45c0.19-0.1,0.4-0.15,0.63-0.15c0.48,0,0.71,0.19,0.71,0.59C99.41,40.06,99.4,40.2,99.36,40.35z"/>
<path class="st2" d="M102.42,45.95c-0.12,0.03-0.23,0.06-0.37,0.07c-0.12,0.01-0.26,0.03-0.4,0.04c-0.15,0-0.3,0.01-0.48,0.01
	c-0.15,0-0.33-0.01-0.51-0.03c-0.19-0.01-0.37-0.04-0.52-0.1v-0.23c0.1-0.03,0.18-0.07,0.27-0.12c0.08-0.05,0.17-0.11,0.23-0.18
	c0.07-0.05,0.12-0.12,0.17-0.21c0.04-0.07,0.05-0.15,0.05-0.23v-4.64l-0.88-0.37v-0.29c0.32-0.1,0.62-0.15,0.91-0.19
	c0.29-0.06,0.54-0.07,0.73-0.07h0.44l-0.07,0.74v5.22l0.77,0.21v0.26C102.64,45.89,102.53,45.93,102.42,45.95z M102.16,37.64
	c-0.04,0.1-0.1,0.19-0.16,0.26c-0.07,0.08-0.15,0.14-0.25,0.18c-0.1,0.05-0.19,0.07-0.3,0.07c-0.1,0-0.19-0.01-0.29-0.05
	c-0.08-0.04-0.17-0.1-0.23-0.17c-0.06-0.07-0.11-0.15-0.15-0.25c-0.04-0.1-0.06-0.21-0.06-0.32c0-0.11,0.01-0.21,0.06-0.3
	c0.03-0.1,0.08-0.18,0.15-0.26c0.07-0.08,0.15-0.14,0.25-0.18c0.1-0.04,0.21-0.07,0.33-0.07c0.1,0,0.19,0.01,0.28,0.05
	c0.08,0.03,0.16,0.08,0.23,0.15c0.07,0.05,0.11,0.14,0.15,0.23c0.04,0.08,0.06,0.19,0.06,0.3C102.21,37.42,102.2,37.53,102.16,37.64
	z"/>
<path class="st2" d="M108.91,42.77h-4.05c0,0.38,0.05,0.73,0.15,1.03c0.11,0.3,0.26,0.55,0.44,0.76c0.18,0.21,0.4,0.37,0.65,0.48
	c0.25,0.11,0.51,0.16,0.8,0.16c0.17,0,0.33-0.01,0.51-0.04c0.18-0.03,0.34-0.07,0.51-0.12c0.18-0.04,0.33-0.11,0.49-0.18
	c0.15-0.08,0.3-0.17,0.43-0.25c0.01,0.03,0.03,0.08,0.04,0.15c0.01,0.07,0.01,0.14,0.01,0.21c0,0.17-0.06,0.32-0.17,0.45
	c-0.11,0.14-0.26,0.27-0.47,0.38c-0.21,0.11-0.45,0.19-0.74,0.26c-0.3,0.07-0.63,0.1-0.99,0.1c-0.4,0-0.76-0.07-1.1-0.22
	c-0.36-0.15-0.65-0.36-0.91-0.63c-0.26-0.28-0.47-0.61-0.62-0.99c-0.14-0.38-0.22-0.82-0.22-1.3c0-0.59,0.08-1.13,0.25-1.6
	c0.16-0.45,0.38-0.84,0.66-1.15c0.26-0.3,0.56-0.55,0.91-0.7c0.34-0.16,0.7-0.25,1.06-0.25c0.37,0,0.7,0.06,1,0.18
	c0.29,0.12,0.54,0.29,0.74,0.51c0.21,0.23,0.36,0.5,0.47,0.81c0.11,0.33,0.16,0.67,0.16,1.07c0,0.14,0,0.26,0,0.41
	C108.93,42.44,108.93,42.6,108.91,42.77z M107.72,41.17c-0.07-0.25-0.17-0.45-0.29-0.62c-0.12-0.16-0.26-0.29-0.44-0.37
	c-0.17-0.08-0.36-0.12-0.55-0.12c-0.19,0-0.37,0.06-0.56,0.17c-0.19,0.1-0.36,0.25-0.49,0.43c-0.15,0.18-0.26,0.4-0.36,0.63
	c-0.1,0.25-0.14,0.49-0.14,0.77h2.94C107.83,41.71,107.79,41.42,107.72,41.17z"/>
<path class="st2" d="M117.89,40.06l-2.43,6.06l-0.48,0.03l-2.32-6l-0.56-0.4v-0.33h2.61v0.33l-0.78,0.33l1.5,4.35h0.01l1.52-4.31
	l-0.8-0.37v-0.33h2.13v0.33L117.89,40.06z"/>
<path class="st2" d="M123.45,45.85c-0.17,0.14-0.34,0.25-0.52,0.33c-0.14-0.08-0.25-0.18-0.36-0.29c-0.1-0.12-0.19-0.25-0.27-0.38
	c-0.1,0.1-0.21,0.18-0.34,0.26c-0.15,0.08-0.29,0.15-0.45,0.21c-0.16,0.07-0.33,0.11-0.52,0.14c-0.18,0.04-0.36,0.05-0.54,0.05
	c-0.26,0-0.49-0.04-0.7-0.11c-0.22-0.08-0.4-0.18-0.55-0.32c-0.17-0.14-0.27-0.3-0.37-0.49c-0.08-0.18-0.12-0.38-0.12-0.6
	c0-0.3,0.08-0.59,0.25-0.85c0.15-0.27,0.38-0.51,0.7-0.71c0.3-0.21,0.67-0.37,1.11-0.49c0.44-0.11,0.95-0.18,1.51-0.18v-0.37
	c0-0.37-0.03-0.67-0.07-0.91c-0.05-0.23-0.12-0.41-0.22-0.55c-0.1-0.12-0.22-0.22-0.38-0.28c-0.15-0.04-0.33-0.07-0.55-0.07
	c-0.38,0-0.74,0.08-1.1,0.23c-0.34,0.15-0.67,0.37-0.96,0.66c-0.03-0.12-0.04-0.26-0.04-0.41c0-0.22,0.04-0.41,0.12-0.59
	c0.08-0.17,0.22-0.32,0.4-0.43c0.18-0.12,0.41-0.22,0.7-0.28c0.29-0.07,0.63-0.1,1.03-0.1c0.34,0,0.66,0.04,0.93,0.12
	c0.27,0.1,0.49,0.21,0.69,0.37c0.19,0.17,0.34,0.36,0.44,0.58c0.1,0.22,0.15,0.48,0.15,0.77c0,0.07,0,0.16-0.01,0.29
	c0,0.11,0,0.23-0.01,0.37c0,0.12-0.01,0.26-0.01,0.38c0,0.12-0.01,0.25-0.01,0.34l-0.04,2.23c0.05,0.12,0.12,0.25,0.22,0.37
	c0.1,0.12,0.21,0.23,0.33,0.33C123.77,45.6,123.63,45.72,123.45,45.85z M122.27,43.04c-0.38,0-0.73,0.04-1.03,0.11
	c-0.3,0.08-0.55,0.18-0.74,0.3c-0.21,0.12-0.36,0.28-0.47,0.44c-0.1,0.18-0.15,0.34-0.15,0.54c0,0.27,0.1,0.49,0.27,0.66
	c0.18,0.17,0.44,0.25,0.8,0.25c0.11,0,0.22-0.01,0.33-0.03c0.12-0.03,0.25-0.05,0.36-0.08c0.12-0.03,0.23-0.07,0.34-0.12
	c0.11-0.04,0.21-0.08,0.29-0.14V43.04z"/>
<path class="st2" d="M130.02,46.08c-0.14,0-0.29-0.01-0.45-0.03c-0.15-0.01-0.3-0.04-0.44-0.1v-0.23c0.18-0.08,0.3-0.18,0.37-0.33
	c0.08-0.14,0.12-0.33,0.12-0.58v-2.62c0-0.33-0.04-0.62-0.1-0.85c-0.07-0.25-0.16-0.44-0.29-0.58c-0.12-0.15-0.26-0.26-0.43-0.33
	c-0.18-0.07-0.36-0.1-0.56-0.1c-0.28,0-0.55,0.04-0.8,0.12c-0.26,0.08-0.47,0.19-0.62,0.3v4.62l0.77,0.21v0.26
	c-0.12,0.04-0.23,0.08-0.34,0.11c-0.12,0.03-0.25,0.06-0.37,0.07c-0.12,0.01-0.26,0.03-0.41,0.04c-0.14,0-0.29,0.01-0.47,0.01
	c-0.17,0-0.34-0.01-0.52-0.03c-0.18-0.01-0.36-0.04-0.51-0.1v-0.23c0.1-0.03,0.18-0.07,0.26-0.12c0.1-0.05,0.17-0.11,0.23-0.18
	c0.07-0.05,0.12-0.12,0.18-0.21c0.04-0.07,0.05-0.15,0.05-0.23v-4.64l-0.89-0.37v-0.3c0.32-0.1,0.62-0.15,0.91-0.19
	c0.29-0.04,0.54-0.06,0.74-0.06h0.33v0.74c0.23-0.23,0.54-0.43,0.89-0.56c0.36-0.14,0.74-0.21,1.14-0.21c0.29,0,0.55,0.04,0.78,0.14
	c0.23,0.1,0.44,0.23,0.61,0.41c0.16,0.18,0.3,0.4,0.4,0.66c0.08,0.28,0.14,0.59,0.14,0.93v3.85l0.71,0.21v0.26
	C131.07,46,130.59,46.08,130.02,46.08z"/>
<path class="st2" d="M142.57,42.66c-0.12,0.43-0.3,0.82-0.52,1.18c-0.22,0.36-0.48,0.67-0.78,0.96c-0.31,0.27-0.64,0.51-1.02,0.7
	c-0.37,0.19-0.77,0.34-1.2,0.44c-0.42,0.1-0.85,0.15-1.3,0.15c-0.28,0-0.52,0-0.73,0c-0.22-0.01-0.43-0.01-0.62-0.03
	c-0.19,0-0.38-0.01-0.56-0.04c-0.19-0.01-0.4-0.04-0.6-0.07v-0.26c0.25-0.07,0.44-0.18,0.58-0.34c0.15-0.15,0.22-0.38,0.22-0.7
	v-6.73l-0.87-0.29v-0.3c0.22-0.04,0.44-0.07,0.66-0.1c0.21-0.03,0.43-0.04,0.65-0.06c0.22-0.01,0.45-0.03,0.7-0.03
	c0.25-0.01,0.51-0.01,0.78-0.01c0.73,0,1.37,0.1,1.96,0.27c0.59,0.18,1.1,0.44,1.51,0.8c0.43,0.34,0.74,0.77,0.97,1.28
	c0.23,0.51,0.34,1.1,0.34,1.76C142.75,41.75,142.69,42.22,142.57,42.66z M141.15,39.97c-0.19-0.44-0.43-0.81-0.74-1.11
	c-0.32-0.3-0.69-0.54-1.11-0.69c-0.43-0.15-0.88-0.23-1.37-0.23c-0.23,0-0.47,0.01-0.71,0.04v7.25c0.12,0.01,0.23,0.03,0.34,0.04
	c0.11,0.01,0.22,0.01,0.33,0.01c0.48,0,0.93-0.08,1.37-0.25c0.42-0.16,0.8-0.41,1.11-0.74c0.33-0.32,0.58-0.71,0.77-1.2
	c0.18-0.47,0.28-1.02,0.28-1.62C141.41,40.9,141.33,40.41,141.15,39.97z"/>
<path class="st2" d="M149.09,42.77h-4.05c0,0.38,0.05,0.73,0.15,1.03c0.11,0.3,0.26,0.55,0.44,0.76c0.18,0.21,0.4,0.37,0.65,0.48
	c0.25,0.11,0.51,0.16,0.8,0.16c0.17,0,0.33-0.01,0.51-0.04c0.18-0.03,0.34-0.07,0.51-0.12c0.18-0.04,0.33-0.11,0.49-0.18
	c0.15-0.08,0.3-0.17,0.43-0.25c0.01,0.03,0.03,0.08,0.04,0.15c0.01,0.07,0.01,0.14,0.01,0.21c0,0.17-0.05,0.32-0.17,0.45
	c-0.11,0.14-0.26,0.27-0.47,0.38c-0.21,0.11-0.45,0.19-0.74,0.26c-0.3,0.07-0.63,0.1-0.99,0.1c-0.4,0-0.76-0.07-1.1-0.22
	c-0.36-0.15-0.65-0.36-0.91-0.63c-0.26-0.28-0.47-0.61-0.62-0.99c-0.14-0.38-0.22-0.82-0.22-1.3c0-0.59,0.08-1.13,0.25-1.6
	c0.16-0.45,0.38-0.84,0.66-1.15c0.26-0.3,0.56-0.55,0.91-0.7c0.34-0.16,0.7-0.25,1.06-0.25c0.37,0,0.7,0.06,1,0.18
	c0.29,0.12,0.54,0.29,0.74,0.51c0.21,0.23,0.36,0.5,0.47,0.81c0.11,0.33,0.16,0.67,0.16,1.07c0,0.14,0,0.26,0,0.41
	C149.1,42.44,149.1,42.6,149.09,42.77z M147.89,41.17c-0.07-0.25-0.16-0.45-0.29-0.62c-0.12-0.16-0.26-0.29-0.44-0.37
	c-0.16-0.08-0.36-0.12-0.55-0.12c-0.19,0-0.37,0.06-0.56,0.17c-0.19,0.1-0.36,0.25-0.49,0.43c-0.15,0.18-0.26,0.4-0.36,0.63
	c-0.1,0.25-0.14,0.49-0.14,0.77H148C148,41.71,147.96,41.42,147.89,41.17z"/>
<path class="st2" d="M154.88,36.97c-0.01,0.08-0.03,0.16-0.05,0.23c-0.12-0.04-0.26-0.08-0.43-0.12c-0.15-0.04-0.3-0.07-0.47-0.1
	c-0.16-0.01-0.33-0.04-0.48-0.06c-0.17-0.01-0.32-0.01-0.45-0.01c-0.14,0-0.28,0.03-0.4,0.1c-0.12,0.07-0.23,0.16-0.32,0.29
	c-0.1,0.12-0.16,0.29-0.22,0.47c-0.05,0.19-0.08,0.4-0.08,0.64c0,0.06,0,0.12,0.01,0.23c0,0.11,0,0.22,0.01,0.34
	c0,0.12,0,0.25,0.01,0.37c0,0.11,0.01,0.21,0.01,0.29h1.74l-0.16,0.74h-1.59v4.99l0.87,0.21v0.26c-0.11,0.04-0.23,0.08-0.36,0.11
	c-0.11,0.03-0.25,0.06-0.37,0.07c-0.14,0.01-0.29,0.03-0.44,0.04c-0.16,0-0.33,0.01-0.52,0.01c-0.17,0-0.34-0.01-0.52-0.03
	c-0.18-0.01-0.36-0.04-0.51-0.1v-0.23c0.1-0.03,0.18-0.07,0.26-0.12c0.1-0.05,0.16-0.11,0.23-0.18c0.07-0.05,0.14-0.12,0.18-0.21
	c0.04-0.07,0.05-0.15,0.05-0.23v-4.59h-0.76v-0.48l0.76-0.3v-1.02c0-0.37,0.06-0.7,0.17-1c0.12-0.3,0.29-0.58,0.52-0.8
	c0.22-0.22,0.49-0.38,0.82-0.51c0.33-0.12,0.7-0.19,1.13-0.19c0.5,0,0.84,0.07,1.04,0.18c0.22,0.12,0.32,0.28,0.32,0.48
	C154.9,36.82,154.9,36.89,154.88,36.97z"/>
<path class="st2" d="M159.47,42.77h-4.05c0,0.38,0.05,0.73,0.15,1.03c0.11,0.3,0.26,0.55,0.44,0.76c0.18,0.21,0.4,0.37,0.65,0.48
	c0.25,0.11,0.51,0.16,0.8,0.16c0.17,0,0.33-0.01,0.51-0.04c0.18-0.03,0.34-0.07,0.51-0.12c0.18-0.04,0.33-0.11,0.49-0.18
	c0.15-0.08,0.3-0.17,0.43-0.25c0.01,0.03,0.03,0.08,0.04,0.15c0.01,0.07,0.01,0.14,0.01,0.21c0,0.17-0.05,0.32-0.17,0.45
	c-0.11,0.14-0.26,0.27-0.47,0.38c-0.21,0.11-0.45,0.19-0.74,0.26c-0.3,0.07-0.63,0.1-0.99,0.1c-0.4,0-0.76-0.07-1.1-0.22
	c-0.36-0.15-0.65-0.36-0.91-0.63c-0.26-0.28-0.47-0.61-0.62-0.99c-0.14-0.38-0.22-0.82-0.22-1.3c0-0.59,0.08-1.13,0.25-1.6
	c0.16-0.45,0.38-0.84,0.66-1.15c0.26-0.3,0.56-0.55,0.91-0.7c0.34-0.16,0.7-0.25,1.06-0.25c0.37,0,0.7,0.06,1,0.18
	c0.29,0.12,0.54,0.29,0.74,0.51c0.21,0.23,0.36,0.5,0.47,0.81c0.11,0.33,0.16,0.67,0.16,1.07c0,0.14,0,0.26,0,0.41
	C159.48,42.44,159.48,42.6,159.47,42.77z M158.27,41.17c-0.07-0.25-0.16-0.45-0.29-0.62c-0.12-0.16-0.26-0.29-0.44-0.37
	c-0.16-0.08-0.36-0.12-0.55-0.12c-0.19,0-0.37,0.06-0.56,0.17c-0.19,0.1-0.36,0.25-0.49,0.43c-0.15,0.18-0.26,0.4-0.36,0.63
	c-0.1,0.25-0.14,0.49-0.14,0.77h2.94C158.38,41.71,158.34,41.42,158.27,41.17z"/>
<path class="st2" d="M165.61,46.08c-0.14,0-0.29-0.01-0.45-0.03c-0.15-0.01-0.3-0.04-0.44-0.1v-0.23c0.18-0.08,0.3-0.18,0.37-0.33
	c0.08-0.14,0.12-0.33,0.12-0.58v-2.62c0-0.33-0.04-0.62-0.1-0.85c-0.07-0.25-0.16-0.44-0.29-0.58c-0.12-0.15-0.26-0.26-0.43-0.33
	c-0.18-0.07-0.36-0.1-0.56-0.1c-0.28,0-0.55,0.04-0.8,0.12c-0.26,0.08-0.47,0.19-0.62,0.3v4.62l0.77,0.21v0.26
	c-0.12,0.04-0.23,0.08-0.34,0.11c-0.12,0.03-0.25,0.06-0.37,0.07c-0.12,0.01-0.26,0.03-0.41,0.04c-0.14,0-0.29,0.01-0.47,0.01
	c-0.16,0-0.34-0.01-0.52-0.03c-0.18-0.01-0.36-0.04-0.51-0.1v-0.23c0.1-0.03,0.18-0.07,0.26-0.12c0.1-0.05,0.16-0.11,0.23-0.18
	c0.07-0.05,0.12-0.12,0.18-0.21c0.04-0.07,0.05-0.15,0.05-0.23v-4.64l-0.89-0.37v-0.3c0.32-0.1,0.62-0.15,0.91-0.19
	c0.29-0.04,0.54-0.06,0.74-0.06h0.33v0.74c0.23-0.23,0.54-0.43,0.89-0.56c0.36-0.14,0.74-0.21,1.14-0.21c0.29,0,0.55,0.04,0.78,0.14
	c0.23,0.1,0.44,0.23,0.6,0.41c0.17,0.18,0.3,0.4,0.4,0.66c0.08,0.28,0.14,0.59,0.14,0.93v3.85l0.71,0.21v0.26
	C166.66,46,166.18,46.08,165.61,46.08z"/>
<path class="st2" d="M172.03,44.91c-0.12,0.23-0.3,0.45-0.52,0.63c-0.22,0.19-0.49,0.34-0.81,0.45c-0.3,0.11-0.66,0.16-1.04,0.16
	c-0.6,0-1.04-0.1-1.32-0.29c-0.29-0.18-0.43-0.47-0.43-0.84c0-0.1,0.01-0.19,0.03-0.3c0.03-0.1,0.05-0.18,0.1-0.26
	c0.3,0.29,0.62,0.51,0.92,0.65c0.32,0.15,0.65,0.22,1.02,0.22c0.38,0,0.67-0.08,0.88-0.25c0.19-0.16,0.29-0.36,0.29-0.6
	c0-0.12-0.01-0.23-0.06-0.33c-0.04-0.1-0.11-0.19-0.19-0.29c-0.1-0.1-0.22-0.18-0.37-0.28c-0.14-0.08-0.33-0.18-0.56-0.28
	l-0.69-0.29c-0.4-0.16-0.7-0.4-0.92-0.69c-0.21-0.29-0.32-0.62-0.32-1.02c0-0.28,0.05-0.54,0.16-0.77c0.12-0.25,0.29-0.47,0.5-0.64
	c0.21-0.18,0.45-0.33,0.76-0.44c0.29-0.11,0.62-0.17,0.97-0.17c0.28,0,0.51,0.03,0.7,0.07c0.19,0.03,0.36,0.1,0.48,0.16
	c0.12,0.07,0.22,0.17,0.28,0.26c0.05,0.11,0.08,0.23,0.08,0.36c0,0.11,0,0.21-0.01,0.29c-0.01,0.1-0.04,0.19-0.05,0.29
	c-0.22-0.15-0.47-0.28-0.76-0.37c-0.28-0.1-0.55-0.15-0.81-0.15c-0.22,0-0.41,0.03-0.58,0.07c-0.17,0.04-0.29,0.11-0.4,0.18
	c-0.11,0.08-0.19,0.18-0.25,0.28c-0.04,0.11-0.07,0.22-0.07,0.33c0,0.12,0.01,0.23,0.04,0.33c0.04,0.11,0.1,0.19,0.18,0.28
	c0.08,0.1,0.19,0.18,0.33,0.25c0.14,0.08,0.32,0.15,0.52,0.23l0.74,0.29c0.25,0.1,0.45,0.21,0.63,0.32
	c0.16,0.11,0.32,0.23,0.43,0.37c0.1,0.15,0.18,0.3,0.23,0.47c0.04,0.17,0.07,0.36,0.07,0.55C172.21,44.4,172.15,44.66,172.03,44.91z
	"/>
<path class="st2" d="M175.42,45.95c-0.12,0.03-0.23,0.06-0.37,0.07c-0.12,0.01-0.26,0.03-0.4,0.04c-0.15,0-0.3,0.01-0.48,0.01
	c-0.15,0-0.33-0.01-0.51-0.03c-0.19-0.01-0.37-0.04-0.52-0.1v-0.23c0.1-0.03,0.18-0.07,0.27-0.12c0.08-0.05,0.17-0.11,0.23-0.18
	c0.07-0.05,0.12-0.12,0.16-0.21c0.04-0.07,0.05-0.15,0.05-0.23v-4.64l-0.88-0.37v-0.29c0.32-0.1,0.62-0.15,0.91-0.19
	c0.29-0.06,0.54-0.07,0.73-0.07h0.44L175,40.16v5.22l0.77,0.21v0.26C175.64,45.89,175.53,45.93,175.42,45.95z M175.16,37.64
	c-0.04,0.1-0.1,0.19-0.17,0.26c-0.07,0.08-0.15,0.14-0.25,0.18c-0.1,0.05-0.19,0.07-0.3,0.07c-0.1,0-0.19-0.01-0.29-0.05
	c-0.08-0.04-0.17-0.1-0.23-0.17c-0.05-0.07-0.11-0.15-0.15-0.25c-0.04-0.1-0.05-0.21-0.05-0.32c0-0.11,0.01-0.21,0.05-0.3
	c0.03-0.1,0.08-0.18,0.15-0.26c0.07-0.08,0.15-0.14,0.25-0.18c0.1-0.04,0.21-0.07,0.33-0.07c0.1,0,0.19,0.01,0.28,0.05
	c0.08,0.03,0.16,0.08,0.23,0.15c0.07,0.05,0.11,0.14,0.15,0.23c0.04,0.08,0.05,0.19,0.05,0.3C175.22,37.42,175.2,37.53,175.16,37.64
	z"/>
<path class="st2" d="M181.92,42.77h-4.05c0,0.38,0.05,0.73,0.15,1.03c0.11,0.3,0.26,0.55,0.44,0.76c0.18,0.21,0.4,0.37,0.65,0.48
	c0.25,0.11,0.51,0.16,0.8,0.16c0.16,0,0.33-0.01,0.51-0.04c0.18-0.03,0.34-0.07,0.51-0.12c0.18-0.04,0.33-0.11,0.49-0.18
	c0.15-0.08,0.3-0.17,0.43-0.25c0.01,0.03,0.03,0.08,0.04,0.15c0.01,0.07,0.01,0.14,0.01,0.21c0,0.17-0.05,0.32-0.17,0.45
	c-0.11,0.14-0.26,0.27-0.47,0.38c-0.21,0.11-0.45,0.19-0.74,0.26c-0.3,0.07-0.63,0.1-0.99,0.1c-0.4,0-0.76-0.07-1.1-0.22
	c-0.36-0.15-0.65-0.36-0.91-0.63c-0.26-0.28-0.47-0.61-0.62-0.99c-0.14-0.38-0.22-0.82-0.22-1.3c0-0.59,0.08-1.13,0.25-1.6
	c0.16-0.45,0.38-0.84,0.66-1.15c0.26-0.3,0.56-0.55,0.91-0.7c0.34-0.16,0.7-0.25,1.06-0.25c0.37,0,0.7,0.06,1,0.18
	c0.29,0.12,0.54,0.29,0.74,0.51c0.21,0.23,0.36,0.5,0.47,0.81c0.11,0.33,0.16,0.67,0.16,1.07c0,0.14,0,0.26,0,0.41
	C181.93,42.44,181.93,42.6,181.92,42.77z M180.72,41.17c-0.07-0.25-0.16-0.45-0.29-0.62c-0.12-0.16-0.26-0.29-0.44-0.37
	c-0.16-0.08-0.36-0.12-0.55-0.12c-0.19,0-0.37,0.06-0.56,0.17c-0.19,0.1-0.36,0.25-0.49,0.43c-0.15,0.18-0.26,0.4-0.36,0.63
	c-0.1,0.25-0.14,0.49-0.14,0.77h2.94C180.83,41.71,180.79,41.42,180.72,41.17z"/>
</svg>
