<?xml version="1.0" encoding="UTF-8" standalone="no"?>
<!DOCTYPE svg PUBLIC "-//W3C//DTD SVG 1.1//EN" "http://www.w3.org/Graphics/SVG/1.1/DTD/svg11.dtd">
<svg width="100%" height="100%" viewBox="0 0 800 800" version="1.1" xmlns="http://www.w3.org/2000/svg" xmlns:xlink="http://www.w3.org/1999/xlink" xml:space="preserve" xmlns:serif="http://www.serif.com/" style="fill-rule:evenodd;clip-rule:evenodd;stroke-linejoin:round;stroke-miterlimit:2;">
    <g id="XMLID_2_" transform="matrix(-1,0,0,1,800,0)">
        <path d="M546.924,425.709L352.984,619.653C345.886,626.752 336.579,630.303 327.273,630.303C317.966,630.303 308.659,626.754 301.561,619.651C287.36,605.452 287.36,582.427 301.561,568.225L469.787,399.993L301.561,231.77C287.36,217.571 287.36,194.545 301.561,180.344C315.76,166.143 338.785,166.143 352.987,180.344L546.926,374.279C553.748,381.098 557.578,390.347 557.578,399.99C557.576,409.639 553.745,418.89 546.924,425.709Z" style="fill:white;fill-rule:nonzero;"/>
    </g>
</svg>
