<?xml version="1.0" encoding="utf-8"?>
<!-- Generator: Adobe Illustrator 27.9.0, SVG Export Plug-In . SVG Version: 6.00 Build 0)  -->
<svg version="1.1" xmlns="http://www.w3.org/2000/svg" xmlns:xlink="http://www.w3.org/1999/xlink" x="0px" y="0px"
	 viewBox="0 0 57 57" style="enable-background:new 0 0 57 57;" xml:space="preserve">
<style type="text/css">
	.st0{fill:#FFFFFF;}
</style>
<g id="Layer_3">
	<path class="st0" d="M28.5,0.5c-15.4,0-28,12.6-28,28s12.6,28,28,28s28-12.6,28-28S43.9,0.5,28.5,0.5z M1.5,28.5
		c0-14.9,12.1-27,27-27s27,12.1,27,27c0,4.6-1.2,9-3.2,12.8c-7.2-4.2-15.4-6.5-23.8-6.5S11.9,37,4.7,41.3
		C2.7,37.5,1.5,33.1,1.5,28.5z M28.5,55.5c-9.9,0-18.6-5.4-23.3-13.3c7-4.1,15.1-6.3,23.3-6.3s16.2,2.2,23.3,6.3
		C47.1,50.1,38.4,55.5,28.5,55.5z"/>
</g>
<g id="Layer_2">
	<path class="st0" d="M28.5,29.3c-6.1,0-11-4.9-11-11s4.9-11,11-11c6.1,0,11,4.9,11,11S34.6,29.3,28.5,29.3z M28.5,8.3
		c-5.5,0-10,4.5-10,10s4.5,10,10,10s10-4.5,10-10S34,8.3,28.5,8.3z"/>
</g>
</svg>
