<?xml version="1.0" encoding="UTF-8" standalone="no"?>
<!DOCTYPE svg PUBLIC "-//W3C//DTD SVG 1.1//EN" "http://www.w3.org/Graphics/SVG/1.1/DTD/svg11.dtd">
<svg width="100%" height="100%" viewBox="0 0 1440 900" version="1.1" xmlns="http://www.w3.org/2000/svg" xmlns:xlink="http://www.w3.org/1999/xlink" xml:space="preserve" xmlns:serif="http://www.serif.com/" style="fill-rule:evenodd;clip-rule:evenodd;stroke-linecap:round;stroke-linejoin:round;stroke-miterlimit:1.5;">
    <g transform="matrix(12.6341,0,0,8.68955,-1982.83,-2554.61)">
        <g id="Layer1">
            <rect x="156.943" y="293.987" width="113.977" height="103.573" style="fill:rgb(217,217,217);"/>
        </g>
    </g>
    <g transform="matrix(1.12068,0,0,1.13409,34.1374,-72.4406)">
        <g id="Layer2">
            <g>
                <g transform="matrix(1,0,0,1,3.42061,18.6838)">
                    <g transform="matrix(1.24015,-0.214344,0.255432,1.47788,-333.111,-130.255)">
                        <rect x="468.106" y="371.3" width="353.027" height="205.517" style="fill:rgb(217,217,217);stroke:rgb(177,177,177);stroke-width:12.83px;"/>
                    </g>
                    <g transform="matrix(0.98539,-0.170312,0.170312,0.98539,-178.957,51.0599)">
                        <path d="M914.785,634.445L793.409,486.43L734.792,532.958L635.711,442.152L465.627,574.511L465.627,656.524L903.581,656.524L914.785,634.445Z" style="fill:rgb(177,177,177);"/>
                    </g>
                </g>
                <g transform="matrix(1,0,0,1,-36.4476,0)">
                    <g transform="matrix(1.25854,0,0,1.49979,-121.022,-204.92)">
                        <rect x="468.106" y="371.3" width="353.027" height="205.517" style="fill:rgb(217,217,217);stroke:rgb(177,177,177);stroke-width:12.8px;"/>
                    </g>
                    <path d="M914.785,634.445L793.409,486.43L734.792,532.958L635.711,442.152L465.627,574.511L465.627,656.524L903.581,656.524L914.785,634.445Z" style="fill:rgb(177,177,177);"/>
                    <g transform="matrix(1.31604,0,0,1.31604,496.897,-200.581)">
                        <circle cx="245.62" cy="485.243" r="27.926" style="fill:rgb(177,177,177);"/>
                    </g>
                </g>
            </g>
        </g>
    </g>
    <g id="Layer3">
    </g>
</svg>
